<?xml version="1.0" standalone="no"?>
<!DOCTYPE svg PUBLIC "-//W3C//DTD SVG 20010904//EN"
 "http://www.w3.org/TR/2001/REC-SVG-20010904/DTD/svg10.dtd">
<svg version="1.0" xmlns="http://www.w3.org/2000/svg"
 width="366.000000pt" height="351.000000pt" viewBox="0 0 366.000000 351.000000"
 preserveAspectRatio="xMidYMid meet">

<g transform="translate(0.000000,351.000000) scale(0.100000,-0.100000)"
fill="#000000" stroke="none">
<path d="M1347 3280 c-52 -41 -39 -130 25 -170 47 -30 123 -23 154 14 l23 26
24 -42 c36 -62 49 -111 51 -186 l1 -67 -30 2 c-16 1 -85 5 -153 9 l-122 7 -30
62 c-42 89 -114 157 -223 211 -74 38 -98 45 -128 41 -78 -10 -120 -70 -94
-133 32 -78 150 -99 206 -37 14 17 28 36 31 44 12 35 113 -81 148 -170 12 -30
12 -35 0 -39 -8 -3 -53 -25 -101 -49 -156 -78 -280 -241 -327 -428 -52 -208
-52 -210 -41 -271 29 -157 172 -337 330 -413 47 -22 93 -41 102 -41 63 0 -45
-172 -205 -325 -114 -110 -134 -116 -215 -65 -60 38 -100 40 -109 5 -8 -30 17
-71 52 -87 13 -6 24 -14 24 -18 0 -4 -22 -21 -50 -38 -72 -45 -82 -112 -18
-120 24 -3 25 -5 15 -32 -8 -22 -8 -32 2 -44 20 -24 44 -19 76 14 35 37 43 37
47 2 3 -23 8 -27 33 -27 26 0 33 7 58 56 16 31 34 87 40 123 6 36 15 66 20 66
14 0 166 151 189 188 11 18 24 30 28 25 4 -4 12 -45 19 -91 13 -92 47 -188 93
-272 31 -56 90 -135 116 -157 13 -11 10 -18 -20 -55 -45 -54 -88 -140 -88
-173 0 -30 -10 -31 -85 -5 -68 24 -155 26 -194 5 -49 -25 -81 -72 -81 -119 0
-73 44 -110 157 -131 129 -25 263 22 295 103 5 15 14 71 18 124 5 67 15 111
30 143 21 44 23 45 44 30 181 -131 371 -185 549 -156 42 7 47 6 47 -10 0 -11
9 -42 20 -71 11 -29 20 -54 20 -54 0 -1 -26 -7 -57 -13 -139 -27 -228 -118
-209 -214 15 -76 78 -106 173 -81 102 27 191 100 228 187 23 55 19 75 -36 181
-29 55 -47 102 -42 107 17 17 69 12 133 -14 108 -43 200 -61 200 -39 0 23 -23
133 -36 175 l-16 48 39 77 c36 74 38 81 37 172 -1 71 -6 110 -22 154 -12 33
-22 60 -22 61 0 1 32 6 71 9 349 35 637 260 700 548 10 48 9 66 -5 125 -31
124 -115 219 -231 262 -109 41 -304 20 -401 -44 -13 -8 -27 -15 -31 -15 -4 0
-8 55 -8 123 0 100 -4 134 -23 187 -60 176 -162 267 -322 290 -96 14 -196 -2
-283 -44 l-69 -33 -45 37 c-24 21 -67 48 -93 61 l-49 24 -1 55 c-1 86 -26 188
-62 247 -18 30 -63 83 -100 119 -63 61 -68 64 -116 64 -34 0 -57 -6 -75 -20z
m129 -29 c36 -22 50 -61 33 -94 -16 -30 -28 -37 -67 -37 -40 0 -102 54 -102
89 0 55 76 78 136 42z m-469 -111 c87 -53 16 -157 -81 -120 -59 22 -73 74 -31
115 29 30 68 32 112 5z m1237 -400 c77 -12 158 -54 203 -103 67 -75 113 -215
113 -347 0 -137 -2 -140 -99 -213 -48 -36 -144 -124 -213 -196 l-126 -131 -89
0 c-97 0 -129 10 -102 32 37 30 91 110 116 169 22 54 27 84 31 190 7 201 -27
332 -123 470 l-44 63 47 24 c45 23 149 49 202 51 14 0 52 -3 84 -9z m-603 -85
c143 -51 224 -216 197 -403 -6 -40 -8 -75 -5 -79 3 -3 27 5 52 17 55 27 92 21
101 -16 12 -49 -2 -129 -36 -199 -41 -87 -157 -205 -245 -252 -223 -117 -522
-88 -717 71 -96 78 -190 240 -204 350 -7 59 23 106 69 106 l34 0 7 83 c14 173
116 297 245 297 50 0 122 -38 146 -77 11 -18 24 -32 28 -33 5 0 29 23 54 50
82 91 174 120 274 85z m1354 -447 c90 -23 175 -96 217 -188 30 -66 29 -177 -2
-250 -104 -242 -306 -388 -610 -440 -106 -19 -116 -19 -125 -4 -81 133 -164
229 -246 283 l-61 41 44 0 c24 0 70 7 102 15 51 13 61 14 75 1 47 -41 174 -83
218 -71 18 4 23 12 23 36 0 17 -6 32 -15 35 -29 11 -15 23 31 26 31 2 51 9 58
21 15 24 -3 51 -38 55 -29 4 -33 14 -11 32 18 15 19 42 3 58 -16 16 -81 15
-123 -2 -19 -8 -35 -12 -36 -8 -1 4 0 24 1 45 2 48 -23 89 -53 85 -27 -4 -46
-42 -54 -107 -8 -70 -33 -90 -127 -104 -41 -6 -79 -7 -83 -3 -13 13 257 268
353 332 182 122 303 152 459 112z m-842 -588 l48 -23 -38 -39 c-41 -43 -173
-148 -239 -190 -172 -110 -444 -198 -614 -198 l-58 0 -11 48 c-19 88 -31 153
-31 171 0 16 14 19 143 24 78 3 171 13 206 22 132 32 287 108 367 181 38 33
41 34 109 31 47 -2 86 -11 118 -27z m288 -305 c16 -33 29 -67 29 -77 0 -33
-160 -179 -297 -271 -103 -68 -233 -132 -332 -163 -84 -26 -248 -49 -285 -40
-30 7 -171 145 -160 155 5 4 54 15 109 25 284 48 571 193 787 396 l83 78 18
-21 c10 -12 32 -49 48 -82z"/>
<path d="M1007 2519 c-15 -11 -27 -28 -27 -37 0 -12 8 -8 32 15 37 38 33 53
-5 22z"/>
<path d="M1655 2530 c-3 -5 1 -10 9 -10 8 0 31 -14 51 -31 27 -24 35 -27 35
-15 0 38 -78 83 -95 56z"/>
<path d="M1105 2460 c-34 -15 -62 -43 -84 -83 -23 -42 -25 -47 -13 -47 4 0 13
15 20 33 16 44 65 87 107 94 44 7 88 -20 120 -73 14 -21 25 -34 25 -28 0 21
-61 95 -86 104 -31 12 -62 12 -89 0z"/>
<path d="M1492 2435 c-41 -22 -83 -77 -82 -107 1 -7 9 3 19 22 25 46 48 67 97
84 31 12 34 15 14 14 -14 0 -35 -6 -48 -13z"/>
<path d="M1580 2443 c0 -5 15 -15 32 -23 43 -20 66 -55 80 -120 15 -75 -8
-157 -58 -206 -37 -35 -44 -38 -81 -28 -25 7 -31 24 -10 24 17 0 50 37 65 73
25 57 13 116 -32 165 l-21 24 -5 -29 c-7 -36 -38 -43 -60 -13 l-17 22 -21 -34
c-15 -24 -22 -52 -22 -86 0 -63 7 -82 31 -82 12 0 19 -7 19 -20 0 -11 -7 -20
-15 -20 -22 0 -42 38 -54 104 -6 33 -13 62 -16 64 -13 13 -3 -82 11 -109 20
-40 14 -45 -27 -20 -39 24 -76 27 -104 8 -11 -7 -42 -14 -69 -15 l-49 -2 24
26 c20 21 24 36 24 89 0 46 -5 68 -18 82 -9 11 -15 22 -12 24 2 3 -4 5 -15 6
-12 1 -20 -6 -22 -20 -5 -34 -45 -35 -54 -3 -6 27 -20 35 -22 14 0 -7 -7 -32
-16 -55 -21 -57 -10 -127 21 -131 40 -6 32 -35 -17 -59 -53 -26 -43 -28 42 -9
35 8 81 16 103 18 33 2 40 0 43 -17 6 -32 32 -45 94 -45 46 0 62 4 75 20 23
26 39 25 126 -6 39 -14 81 -28 92 -31 19 -4 19 -4 3 10 -20 16 -24 37 -7 37
16 0 51 47 71 94 37 90 5 224 -64 266 -35 21 -48 25 -48 13z m-222 -324 c30
-10 47 -33 36 -50 -8 -14 -108 -11 -129 4 -21 16 -14 34 19 47 29 12 38 12 74
-1z"/>
<path d="M1118 2373 c7 -3 16 -2 19 1 4 3 -2 6 -13 5 -11 0 -14 -3 -6 -6z"/>
<path d="M1282 2290 c-1 -34 -10 -70 -23 -94 -11 -21 -18 -40 -15 -43 2 -3 14
16 26 42 15 33 20 60 17 98 l-3 52 -2 -55z"/>
<path d="M995 2259 c2 -31 11 -71 20 -89 23 -44 30 -31 9 16 -9 22 -21 59 -25
84 -8 44 -8 43 -4 -11z"/>
<path d="M1082 1993 c-7 -3 -17 -14 -23 -25 -9 -17 -8 -19 9 -14 24 8 75 -41
107 -105 28 -53 42 -67 86 -79 57 -17 102 3 160 70 28 33 63 67 77 76 24 16
26 16 39 -2 12 -17 13 -17 13 2 0 10 -4 25 -9 33 -8 12 -12 12 -25 2 -12 -10
-53 -12 -173 -9 -152 5 -216 17 -238 43 -5 6 -16 10 -23 8z m259 -163 c27 -15
24 -26 -11 -40 -34 -14 -76 -7 -103 18 -18 16 -18 17 0 23 27 11 92 10 114 -1z"/>
</g>
</svg>
