<?xml version="1.0" standalone="no"?>
<!DOCTYPE svg PUBLIC "-//W3C//DTD SVG 20010904//EN"
 "http://www.w3.org/TR/2001/REC-SVG-20010904/DTD/svg10.dtd">
<svg version="1.0" xmlns="http://www.w3.org/2000/svg"
 width="437.000000pt" height="360.000000pt" viewBox="0 0 437.000000 360.000000"
 preserveAspectRatio="xMidYMid meet">

<g transform="translate(0.000000,360.000000) scale(0.100000,-0.100000)"
fill="#000000" stroke="none">
<path d="M3106 3383 c-98 -43 -164 -91 -275 -205 -42 -43 -81 -78 -86 -78 -6
0 -28 -17 -50 -38 -89 -86 -192 -169 -242 -194 -29 -15 -53 -22 -53 -17 0 21
-83 217 -112 266 -57 94 -142 109 -250 46 -65 -38 -182 -150 -193 -183 -3 -11
-15 -22 -26 -25 -11 -4 -50 -34 -87 -66 -37 -33 -82 -67 -100 -75 -54 -22
-159 -112 -229 -193 -91 -107 -151 -232 -163 -343 -11 -97 0 -152 45 -220 15
-22 25 -41 23 -42 -2 -2 -50 -13 -108 -26 -103 -22 -190 -55 -190 -70 0 -4
-12 -13 -27 -19 -16 -6 -73 -55 -127 -108 -94 -92 -99 -99 -104 -145 -4 -40
-13 -57 -53 -103 -27 -31 -49 -64 -49 -74 0 -10 -7 -35 -15 -54 -18 -44 -18
-49 -2 -71 11 -16 17 -17 36 -7 17 10 20 15 11 26 -12 14 -11 15 80 28 14 3 1
5 -27 6 -46 1 -53 4 -53 21 0 11 7 23 15 26 8 3 17 14 20 25 4 10 15 24 26 30
16 8 25 5 49 -20 32 -31 36 -31 20 0 -15 27 -1 47 16 24 13 -17 14 -17 20 -1
5 14 9 15 15 4 7 -10 9 -9 9 3 0 27 48 30 78 4 20 -17 33 -20 50 -14 12 5 22
15 22 22 0 17 34 49 43 41 3 -4 14 -3 24 1 10 5 21 7 26 7 10 -3 9 36 -2 43
-5 3 -17 -3 -27 -12 -16 -16 -16 -16 -10 3 5 17 2 20 -16 20 -13 -1 -24 6 -26
16 -2 12 2 15 17 11 12 -3 21 -1 21 4 0 15 -50 9 -60 -7 -8 -12 -10 -12 -10 5
-1 20 -1 20 -15 1 -8 -11 -15 -14 -15 -8 0 7 -11 17 -25 24 -13 6 -22 15 -18
21 4 6 1 7 -8 1 -23 -14 -35 -13 -47 6 -9 15 -7 19 12 24 12 3 33 3 47 0 13
-3 60 -7 103 -9 64 -2 82 -6 92 -21 26 -37 35 -44 60 -44 17 0 27 8 34 26 12
31 -3 64 -28 64 -10 0 -23 5 -29 11 -7 7 -15 6 -26 -5 -24 -25 -41 -19 -53 18
-10 32 -9 35 13 45 17 8 30 8 44 1 15 -9 21 -7 25 5 6 14 8 14 20 -2 14 -17
14 -17 12 2 -4 25 -25 48 -37 41 -5 -3 -8 -14 -6 -24 1 -9 0 -11 -2 -4 -3 7
-10 9 -16 5 -7 -4 -6 1 2 11 16 19 57 44 47 28 -3 -5 1 -15 9 -22 8 -7 15 -19
15 -26 0 -8 5 -14 10 -14 6 0 10 -7 10 -15 0 -15 14 -23 67 -39 18 -6 21 -4
16 14 -4 15 -8 18 -13 10 -10 -16 -50 -3 -50 17 0 12 3 13 14 4 11 -9 13 -5
12 20 -1 20 5 34 13 37 8 3 11 0 7 -7 -4 -6 -2 -11 5 -11 8 0 7 -5 -2 -17 -13
-16 -12 -17 3 -4 10 7 15 18 11 24 -4 6 -1 7 7 2 15 -9 30 12 23 32 -4 9 -9
10 -17 4 -8 -7 -16 -3 -26 12 -12 20 -12 21 3 8 20 -16 23 -1 5 18 -11 11 -10
13 5 8 10 -4 16 -3 13 1 -2 4 2 15 9 25 8 12 15 14 20 8 3 -6 4 -11 1 -11 -3
0 5 -10 17 -23 39 -42 56 -66 49 -71 -9 -5 -61 52 -54 59 3 3 -2 5 -11 5 -9 0
-18 -3 -21 -8 -6 -10 20 -43 28 -35 4 4 4 0 0 -10 -4 -13 -2 -16 9 -11 8 3 17
1 20 -3 3 -5 -6 -9 -20 -9 -15 1 -28 -5 -30 -11 -3 -7 3 -13 11 -13 9 0 19 -6
22 -14 3 -8 17 -17 32 -21 l27 -7 -34 -14 c-42 -18 -61 -12 -56 16 2 11 0 18
-5 15 -9 -6 -8 -31 3 -41 11 -11 -53 -66 -69 -60 -9 3 -12 1 -9 -4 3 -6 2 -10
-2 -10 -5 0 -19 -18 -33 -41 -14 -22 -37 -47 -52 -55 -32 -17 -42 -18 -33 -4
3 6 1 10 -5 10 -6 0 -9 -8 -6 -18 4 -11 0 -35 -9 -55 -8 -20 -15 -52 -15 -71
0 -26 -9 -44 -34 -70 -43 -46 -82 -156 -66 -186 12 -23 19 -24 42 -6 13 10 15
15 6 24 -9 9 -7 12 9 12 12 0 25 4 28 10 3 5 -3 10 -14 10 -12 0 -21 5 -21 11
0 17 36 59 44 51 4 -3 4 1 0 11 -10 27 40 22 59 -5 13 -19 16 -20 16 -5 1 9
-3 17 -9 17 -5 0 -10 5 -10 11 0 6 8 9 18 7 10 -2 16 -11 14 -23 -2 -17 -1
-17 11 3 7 12 16 19 20 16 4 -4 7 0 7 9 0 22 52 23 70 2 20 -24 53 -18 72 14
10 19 23 28 35 27 10 -2 26 1 36 6 12 6 19 5 22 -4 3 -8 17 -15 31 -16 22 -2
24 0 14 12 -6 8 -18 12 -25 10 -7 -3 -21 6 -30 20 -14 21 -21 24 -36 16 -14
-8 -17 -7 -13 3 3 9 -3 13 -17 13 -12 -1 -24 5 -27 13 -3 10 0 12 11 8 9 -3
19 -3 21 2 7 11 -27 10 -41 -2 -9 -6 -13 -6 -13 2 0 7 -4 9 -10 6 -5 -3 -20 0
-32 7 -23 12 -29 14 -61 16 -10 1 -15 7 -12 12 3 5 0 10 -7 11 -7 0 -2 4 10
10 13 5 27 7 31 4 5 -2 46 -6 92 -9 74 -4 86 -8 104 -29 42 -52 99 -37 79 20
-12 34 -72 53 -89 29 -13 -17 -40 -16 -58 4 -10 12 -9 12 6 1 14 -11 17 -11
17 2 0 9 -8 24 -17 34 -10 10 -16 17 -14 16 2 -2 11 3 19 10 13 10 14 9 7 -3
-6 -12 -5 -13 6 -2 7 6 21 12 32 12 11 0 16 -5 12 -12 -4 -7 1 -4 9 6 9 11 16
15 16 9 0 -6 7 -14 16 -17 14 -5 15 -4 4 9 -7 8 -9 15 -4 15 5 0 2 5 -6 11
-10 7 -11 9 -2 7 8 -2 13 -7 13 -11 -2 -16 75 -83 95 -83 26 0 22 16 -9 35
-20 13 -21 13 -8 -2 15 -19 1 -23 -17 -5 -17 17 -15 28 5 28 15 0 15 2 -1 19
-10 11 -24 17 -31 15 -7 -3 -16 -1 -20 5 -3 7 0 8 10 5 11 -5 14 -2 9 10 -5
12 -2 15 10 10 9 -3 16 -10 16 -15 0 -4 7 -5 17 -2 11 5 14 3 9 -6 -6 -9 -1
-12 15 -9 14 2 24 9 23 19 -2 22 17 19 45 -7 24 -22 24 -23 3 -17 -12 3 -22
10 -22 15 0 5 -5 6 -10 3 -6 -4 -9 -19 -8 -35 1 -16 6 -26 10 -24 5 3 5 11 1
17 -4 7 1 5 11 -3 10 -8 28 -16 39 -17 12 -2 32 -15 45 -28 13 -14 29 -25 37
-25 8 0 18 -6 22 -13 11 -17 63 -49 63 -39 0 12 -69 82 -80 82 -5 0 -16 7 -24
16 -12 11 -13 20 -6 34 12 22 -4 37 -37 34 -12 0 -30 7 -39 17 -16 18 -16 19
-1 19 10 0 17 -4 17 -10 0 -5 8 -10 18 -10 15 1 15 2 -2 15 -11 8 -29 15 -41
15 -12 0 -26 5 -32 11 -8 8 -14 6 -22 -9 -6 -10 -7 -22 -4 -26 3 -3 1 -6 -5
-6 -19 0 -22 16 -10 48 12 32 48 49 71 35 7 -4 28 -8 47 -9 19 -1 43 -4 52 -8
9 -4 21 -5 27 -2 5 4 13 2 16 -4 4 -6 16 -8 26 -5 11 4 25 2 32 -3 7 -5 24
-12 38 -15 23 -6 54 -32 112 -95 9 -10 33 -59 53 -107 63 -157 174 -329 232
-359 38 -20 140 -126 122 -126 -171 -5 -219 -1 -289 24 -40 14 -82 31 -93 37
-13 7 -18 7 -14 1 3 -6 0 -12 -6 -15 -7 -2 5 -7 27 -11 22 -4 73 -23 114 -42
65 -30 100 -36 87 -15 -6 10 117 1 128 -9 4 -5 -19 -6 -53 -3 -33 3 -66 1 -73
-4 -7 -5 -50 -20 -95 -33 -46 -12 -80 -26 -78 -30 3 -4 -14 -11 -38 -15 -23
-4 -60 -13 -82 -20 -40 -14 -39 -14 30 -9 77 5 194 22 206 30 5 3 18 0 29 -6
11 -6 20 -7 20 -3 0 4 14 9 32 9 30 1 30 0 12 -13 -11 -8 -30 -12 -47 -9 -17
4 -52 -4 -90 -18 -81 -31 -185 -55 -272 -61 -38 -3 -81 -8 -94 -11 -29 -6
-307 -44 -378 -51 -29 -3 -53 -8 -53 -12 0 -6 67 -2 210 13 45 5 40 2 -30 -13
-96 -22 -265 -34 -295 -21 -12 5 -14 9 -6 9 8 1 11 4 7 8 -7 8 -23 11 -88 19
-27 3 -45 10 -42 15 3 5 -3 9 -12 9 -10 0 -26 8 -37 17 -19 17 -19 17 -13 -4
4 -13 3 -23 -2 -23 -5 0 -12 14 -16 30 l-6 30 -86 0 c-70 0 -85 3 -81 14 9 22
-5 27 -20 8 -8 -9 -12 -11 -8 -4 8 15 -33 32 -78 32 -25 0 -29 2 -17 11 12 9
11 10 -7 6 -12 -3 -27 1 -34 9 -16 19 -26 18 -32 -6 -4 -14 13 -38 63 -90 71
-73 100 -90 152 -90 17 0 52 -12 76 -26 34 -20 64 -28 116 -32 39 -2 78 -10
86 -17 22 -18 84 -37 101 -30 8 3 36 -6 61 -19 70 -37 144 -48 252 -36 50 6
151 14 224 20 132 10 232 29 283 56 25 13 28 12 43 -11 9 -14 26 -25 37 -25
11 0 53 27 92 61 109 92 132 99 82 25 -14 -20 -25 -45 -25 -54 1 -27 47 35 66
88 15 42 63 100 82 100 5 0 25 -42 45 -93 29 -71 37 -106 37 -155 0 -35 4 -62
10 -62 28 0 4 153 -41 263 -31 76 -29 87 18 101 19 6 26 -3 68 -90 25 -53 48
-94 51 -92 2 3 -16 47 -41 99 -24 52 -45 99 -44 104 0 6 23 21 51 34 59 28 56
30 90 -74 15 -49 22 -95 23 -152 0 -46 4 -83 9 -83 5 0 7 48 4 106 -4 91 -3
102 8 77 7 -17 13 -21 13 -11 1 9 -15 55 -35 102 -35 85 -36 87 -18 107 18 20
19 20 32 2 20 -26 86 -168 106 -231 10 -28 22 -52 27 -52 12 0 -34 125 -85
233 l-42 87 23 22 c13 12 21 28 19 35 -7 17 55 78 105 104 23 11 38 23 35 27
-4 3 15 29 41 56 l48 51 -52 -49 c-29 -27 -49 -54 -46 -59 4 -6 0 -8 -9 -5
-10 4 -39 -15 -82 -54 -36 -33 -66 -56 -66 -52 0 4 49 73 109 153 130 174 195
276 271 431 72 143 165 369 197 475 111 372 151 571 163 815 9 184 -1 276 -38
346 -35 64 -80 86 -181 91 -70 3 -83 0 -165 -34z m114 -33 c0 -5 -2 -10 -4
-10 -3 0 -8 5 -11 10 -3 6 -1 10 4 10 6 0 11 -4 11 -10z m-162 -57 c-4 -22
-22 -20 -26 1 -2 10 3 16 13 16 10 0 15 -7 13 -17z m-148 -107 c0 -7 -6 -19
-14 -25 -19 -16 -32 5 -16 24 16 19 30 19 30 1z m-883 -102 c-9 -9 -28 6 -21
18 4 6 10 6 17 -1 6 -6 8 -13 4 -17z m813 -19 c0 -8 -6 -15 -14 -15 -17 0 -28
14 -19 24 12 12 33 6 33 -9z m-905 -54 c7 -12 -12 -24 -25 -16 -11 7 -4 25 10
25 5 0 11 -4 15 -9z m775 -8 c0 -10 -32 -43 -42 -43 -15 0 -8 29 10 39 20 12
32 14 32 4z m558 -25 c18 -39 34 -97 28 -107 -4 -5 -2 -11 3 -13 5 -1 15 -57
21 -123 12 -138 -1 -479 -19 -514 -7 -12 -9 -26 -5 -33 11 -18 -48 1 -62 20
-7 9 -16 42 -19 72 -4 30 -11 79 -16 109 -5 30 -9 76 -9 102 0 44 2 47 30 53
29 5 30 6 13 24 -10 10 -21 17 -25 15 -3 -1 -4 6 -1 17 3 12 0 20 -6 20 -7 0
-11 6 -10 13 4 30 -2 58 -11 52 -5 -3 -10 0 -10 9 0 8 -6 17 -12 20 -10 5 -10
7 -1 12 13 6 6 32 -14 52 -6 7 -10 19 -7 27 18 46 66 -17 94 -122 12 -46 24
-82 27 -79 3 3 0 42 -6 87 -13 96 -15 309 -3 309 5 0 14 -10 20 -22z m-1353
-48 c3 -5 -1 -10 -9 -10 -8 0 -18 5 -21 10 -3 6 1 10 9 10 8 0 18 -4 21 -10z
m-101 -45 c-4 -8 -15 -15 -26 -15 -17 0 -18 3 -8 15 7 8 19 15 26 15 8 0 11
-6 8 -15z m766 -50 c0 -16 -35 -21 -44 -6 -8 12 4 21 26 21 10 0 18 -7 18 -15z
m-270 -52 c0 -23 -19 -23 -25 -1 -18 62 -17 64 4 38 11 -14 21 -30 21 -37z
m-560 7 c0 -5 -9 -10 -20 -10 -11 0 -20 5 -20 10 0 6 9 10 20 10 11 0 20 -4
20 -10z m1621 -25 c16 10 10 -1 -11 -20 -20 -18 -20 -17 -20 16 1 28 2 31 11
16 6 -9 14 -15 20 -12z m-1783 -27 c-2 -6 -10 -14 -16 -16 -7 -2 -10 2 -6 12
7 18 28 22 22 4z m1442 -55 c0 -6 -6 -14 -12 -17 -7 -3 -4 -4 7 -3 15 1 20 -4
20 -20 0 -13 5 -23 10 -24 21 -4 64 -149 44 -149 -5 0 -9 7 -9 15 0 8 -4 15
-9 15 -6 0 -9 -9 -8 -19 0 -11 6 -19 11 -18 15 3 28 -96 13 -105 -11 -7 -9 -9
10 -7 5 0 11 -13 14 -29 9 -45 3 -230 -8 -245 -16 -20 -21 -53 -10 -72 7 -13
6 -16 -3 -10 -9 5 -10 2 -5 -14 4 -14 2 -21 -6 -21 -19 0 -5 -10 21 -15 31 -6
44 3 29 21 -9 11 -8 14 5 14 9 0 16 7 16 16 0 9 7 22 15 28 8 6 16 22 17 36 2
14 11 36 21 50 20 28 23 54 5 48 -12 -4 -14 -8 -38 -60 -7 -15 -17 -25 -23
-21 -5 3 -6 -3 -2 -16 5 -15 3 -19 -8 -15 -20 7 -20 69 0 85 14 12 15 11 8
-10 -5 -17 -4 -22 6 -19 8 3 15 17 17 31 2 15 7 25 11 23 4 -3 7 4 8 14 1 11
-2 22 -8 25 -5 4 -9 -3 -9 -14 0 -12 -2 -21 -4 -21 -2 0 -10 -2 -18 -5 -10 -4
-13 9 -13 55 0 33 3 60 7 60 4 0 4 7 1 17 -4 11 -3 14 6 9 6 -4 9 -16 6 -27
-4 -13 -2 -19 9 -19 8 0 25 -19 38 -42 15 -28 31 -44 46 -46 34 -5 36 -40 8
-118 -27 -71 -30 -79 -61 -149 -9 -22 -19 -48 -21 -59 -2 -10 -6 -21 -10 -25
-4 -3 -5 1 -2 10 4 9 3 22 -2 29 -7 12 -20 -24 -25 -70 -1 -8 -7 -25 -13 -37
-7 -13 -10 -23 -6 -23 4 0 -1 -9 -11 -20 -10 -11 -14 -20 -9 -20 5 -1 -2 -10
-15 -20 -13 -11 -21 -20 -18 -20 3 0 1 -13 -4 -29 -7 -20 -15 -28 -25 -24 -10
4 -12 0 -8 -11 3 -9 1 -16 -5 -16 -6 0 -11 -5 -11 -11 0 -5 -17 -30 -37 -55
-29 -34 -43 -44 -60 -41 -16 3 -23 -1 -23 -10 0 -10 6 -13 18 -8 13 5 14 3 5
-6 -33 -33 -41 40 -11 106 12 27 33 33 41 13 4 -8 6 -7 6 4 1 9 -11 26 -25 37
-23 18 -26 26 -21 62 6 49 1 69 -20 69 -12 0 -14 -8 -10 -37 5 -26 3 -33 -3
-23 -8 13 -10 12 -10 -2 0 -10 -5 -18 -11 -18 -6 0 -8 22 -5 63 4 55 4 57 -5
22 -5 -22 -19 -74 -30 -115 -11 -41 -21 -86 -23 -100 -3 -22 -7 -35 -29 -90
-12 -29 4 89 18 135 7 27 11 61 8 78 -5 23 -3 28 7 22 10 -6 12 -4 7 7 -3 9
-3 18 -1 21 3 3 7 45 9 94 2 62 9 103 23 134 11 24 25 62 32 84 7 22 21 58 30
80 10 22 28 72 41 110 12 39 34 96 49 127 l27 57 -26 54 c-33 69 -39 66 -13
-6 17 -45 19 -57 8 -73 -7 -11 -25 -53 -40 -94 -68 -185 -109 -287 -127 -318
-10 -18 -19 -42 -19 -54 0 -59 -67 -338 -81 -338 -5 0 -9 4 -9 8 0 12 -111
193 -132 216 -10 11 -18 27 -18 36 0 18 16 72 31 105 23 52 28 74 18 81 -7 4
-4 13 6 24 11 12 13 20 5 25 -7 5 -8 11 -1 19 6 7 13 41 16 76 3 35 8 66 11
69 11 11 35 -34 29 -54 -11 -36 -16 -122 -6 -100 5 11 10 34 10 52 1 34 16 52
24 29 3 -8 4 -41 2 -73 -5 -58 -4 -58 6 -15 6 23 14 40 19 37 5 -3 -2 20 -17
51 -14 31 -26 69 -28 83 -1 15 -5 33 -9 40 -5 7 -1 20 8 30 9 10 16 27 16 38
0 11 7 26 15 33 8 7 15 20 15 29 0 9 5 22 12 29 9 9 9 12 0 12 -7 0 -12 5 -12
11 0 6 6 9 14 6 7 -3 23 6 35 19 12 14 26 22 31 19 6 -3 10 5 10 19 0 14 5 28
11 31 6 4 8 13 5 20 -2 7 2 21 10 32 14 17 15 17 9 -3 -7 -28 21 -41 30 -13 8
23 25 25 25 2 0 -12 3 -14 11 -6 8 8 8 17 1 29 -14 26 6 67 30 61 11 -3 28 4
43 19 20 20 22 26 10 38 -8 7 -11 16 -8 20 7 7 32 -24 33 -41z m88 17 c15 0
15 -2 2 -10 -8 -5 -24 -9 -35 -9 l-20 0 20 9 c11 5 14 9 8 9 -7 1 -13 9 -13
19 1 16 1 16 11 0 5 -10 18 -18 27 -18z m-118 -10 c0 -5 -4 -10 -10 -10 -5 0
-10 5 -10 10 0 6 5 10 10 10 6 0 10 -4 10 -10z m362 -23 c3 -13 1 -32 -2 -43
-5 -13 -8 -5 -8 24 -1 47 3 54 10 19z m-1192 -1 c0 -3 -4 -8 -10 -11 -5 -3
-10 -1 -10 4 0 6 5 11 10 11 6 0 10 -2 10 -4z m950 -4 c0 -5 -7 -9 -15 -9 -8
0 -12 4 -9 9 3 4 9 8 15 8 5 0 9 -4 9 -8z m19 -62 c-9 -39 -8 -47 9 -60 13
-11 22 -40 31 -100 6 -47 15 -98 18 -114 4 -20 2 -27 -6 -22 -6 4 -14 25 -17
47 -4 21 -11 39 -16 39 -6 0 -8 18 -6 40 2 22 0 40 -4 40 -5 0 -8 9 -8 21 0
11 5 17 10 14 18 -11 11 3 -13 28 -23 22 -23 25 -10 71 18 59 25 57 12 -4z
m235 -135 c-9 -27 -20 -75 -25 -105 -6 -41 -7 -29 -3 45 3 55 5 123 5 150 l0
50 20 -45 c19 -42 19 -46 3 -95z m-217 100 c0 -8 -4 -12 -9 -9 -4 3 -8 9 -8
15 0 5 4 9 8 9 5 0 9 -7 9 -15z m-30 -82 c-3 -10 -5 -4 -5 12 0 17 2 24 5 18
2 -7 2 -21 0 -30z m-371 -30 c-4 -4 -11 -1 -16 7 -16 25 -11 35 7 17 9 -9 13
-20 9 -24z m-137 -225 c-5 -9 -9 -47 -9 -84 0 -58 -2 -65 -15 -54 -17 14 -20
75 -5 85 18 11 11 25 -12 25 -23 1 -23 1 -3 16 17 13 18 16 5 24 -11 7 -6 9
16 7 27 -2 30 -5 23 -19z m-842 -140 c-3 -8 -6 -5 -6 6 -1 11 2 17 5 13 3 -3
4 -12 1 -19z m23 -24 c0 -8 -5 -12 -10 -9 -6 4 -8 11 -5 16 9 14 15 11 15 -7z
m-180 -114 c0 -5 -2 -10 -4 -10 -3 0 -8 5 -11 10 -3 6 -1 10 4 10 6 0 11 -4
11 -10z m24 -42 c-5 -7 -2 -9 9 -5 10 4 18 -1 22 -14 4 -10 9 -19 13 -19 4 0
18 -18 32 -40 14 -22 28 -40 33 -40 4 0 5 -4 2 -10 -3 -5 -33 20 -65 57 -50
58 -64 83 -44 83 3 0 2 -5 -2 -12z m-420 -23 c-4 -8 -11 -15 -16 -15 -6 0 -5
6 2 15 7 8 14 15 16 15 2 0 1 -7 -2 -15z m290 -26 c-3 -5 1 -9 9 -9 8 0 22 -9
32 -20 16 -18 16 -20 1 -26 -18 -7 -49 13 -40 27 3 5 0 8 -7 7 -6 -2 -12 7
-14 19 -1 14 3 19 12 16 7 -3 10 -9 7 -14z m-244 1 c0 -19 -34 -28 -49 -13
-12 13 -11 14 7 9 11 -4 23 -2 27 4 8 13 15 13 15 0z m1200 -31 c0 -9 7 -19
14 -22 11 -4 13 -16 9 -42 -4 -27 -2 -35 8 -33 9 2 15 -15 21 -61 11 -94 16
-96 17 -3 1 46 5 82 11 82 15 0 45 -52 42 -73 -3 -13 0 -17 8 -12 18 11 26 -9
25 -60 -1 -25 2 -42 8 -38 5 3 7 18 5 34 -3 17 -1 26 3 22 14 -14 16 -273 2
-273 -6 0 -15 5 -18 11 -5 7 -14 4 -28 -8 -18 -16 -20 -16 -14 -1 3 9 -1 24
-8 35 -14 17 -14 17 -15 -7 -1 -23 -2 -23 -10 -5 -8 19 -9 19 -9 -2 -1 -12 5
-23 12 -26 7 -2 1 -10 -15 -17 -16 -8 -24 -18 -20 -24 10 -16 11 -37 2 -31
-11 7 -7 -49 5 -57 5 -4 6 -11 1 -15 -4 -4 -14 1 -22 11 -11 16 -11 21 -1 28
8 5 6 8 -8 8 -22 0 -27 6 -146 200 -46 74 -106 167 -134 207 -27 40 -58 85
-67 100 -10 15 -24 38 -33 50 -13 17 -14 23 -3 29 7 4 10 4 6 0 -8 -10 14 -36
24 -29 4 2 5 -4 1 -13 -5 -13 -3 -15 7 -9 8 5 11 4 7 -2 -4 -6 -1 -13 7 -16 8
-3 24 -26 37 -52 14 -27 28 -44 36 -41 7 3 15 1 18 -5 4 -5 11 -6 17 -3 7 4 8
2 4 -4 -4 -7 -2 -12 3 -12 6 0 11 -7 11 -15 0 -8 7 -15 15 -15 9 0 18 -7 21
-15 4 -8 10 -13 14 -10 4 3 10 -9 14 -25 4 -22 11 -30 28 -31 17 -1 19 -2 6
-6 -10 -2 -18 -8 -18 -13 0 -5 6 -7 14 -4 9 3 15 -4 18 -20 3 -14 2 -26 -2
-26 -3 0 -6 -16 -6 -35 1 -20 6 -35 13 -35 15 0 25 32 18 52 -8 20 25 34 37
16 4 -7 6 -20 3 -28 -2 -8 3 -5 11 7 l16 23 29 -32 c16 -17 32 -28 35 -25 6 6
-15 72 -45 137 -11 25 -21 64 -21 88 0 23 -4 42 -9 42 -5 0 -12 26 -16 58 -3
31 -7 75 -10 96 -2 27 -1 35 6 25 5 -7 9 -21 9 -30z m-1409 -6 c13 -16 12 -17
-3 -4 -10 7 -18 15 -18 17 0 8 8 3 21 -13z m1486 2 c0 -8 -4 -12 -9 -9 -5 3
-6 10 -3 15 9 13 12 11 12 -6z m-1061 -42 c-3 -3 -13 -3 -22 1 -13 5 -14 9 -3
22 11 14 13 14 22 -1 5 -9 6 -19 3 -22z m510 25 c4 -6 3 -8 -4 -4 -5 3 -13 0
-15 -6 -3 -8 -6 -6 -6 5 -1 19 14 23 25 5z m28 -43 c9 -13 16 -29 16 -35 0 -6
12 -27 26 -46 15 -19 25 -37 22 -39 -8 -8 -98 111 -98 129 0 23 15 19 34 -9z
m515 12 c8 -10 7 -14 -4 -14 -8 0 -15 6 -15 14 0 7 2 13 4 13 2 0 9 -6 15 -13z
m-1459 -37 c0 -5 -5 -10 -11 -10 -5 0 -7 5 -4 10 3 6 8 10 11 10 2 0 4 -4 4
-10z m440 -54 c0 -2 -8 -10 -17 -17 -16 -13 -17 -12 -4 4 13 16 21 21 21 13z
m-52 -30 c-10 -7 -14 -17 -10 -21 4 -5 1 -5 -6 -1 -11 6 -10 12 4 27 9 11 20
16 23 13 3 -3 -2 -11 -11 -18z m695 -31 c-3 -9 -8 -14 -10 -11 -3 3 -2 9 2 15
9 16 15 13 8 -4z m37 -33 c0 -15 -2 -15 -10 -2 -13 20 -13 33 0 25 6 -3 10
-14 10 -23z m510 -92 c0 -5 -5 -33 -12 -62 l-12 -53 -7 40 c-4 22 -8 65 -8 95
l-1 55 20 -33 c11 -18 20 -37 20 -42z m-430 -20 c0 -8 -9 -1 -20 15 -11 17
-20 35 -20 40 1 16 40 -38 40 -55z m610 37 c0 -7 -7 -22 -15 -33 -13 -17 -13
-16 -3 14 13 34 18 40 18 19z m-346 -73 c3 -8 2 -12 -4 -9 -6 3 -10 10 -10 16
0 14 7 11 14 -7z m226 -58 c0 -3 -4 -8 -10 -11 -5 -3 -10 -1 -10 4 0 6 5 11
10 11 6 0 10 -2 10 -4z m-480 -646 c0 -5 -5 -10 -11 -10 -5 0 -7 5 -4 10 3 6
8 10 11 10 2 0 4 -4 4 -10z m-39 -43 c-13 -13 -26 -3 -16 12 3 6 11 8 17 5 6
-4 6 -10 -1 -17z"/>
<path d="M3283 2605 c0 -22 2 -30 4 -17 2 12 2 30 0 40 -3 9 -5 -1 -4 -23z"/>
<path d="M2850 2530 c0 -5 5 -10 11 -10 5 0 7 5 4 10 -3 6 -8 10 -11 10 -2 0
-4 -4 -4 -10z"/>
<path d="M3011 2474 c0 -11 3 -14 6 -6 3 7 2 16 -1 19 -3 4 -6 -2 -5 -13z"/>
<path d="M2790 2452 c0 -6 4 -13 9 -16 5 -3 7 -15 4 -26 -3 -11 -1 -20 5 -20
15 0 11 48 -4 61 -9 8 -14 8 -14 1z"/>
<path d="M2971 2184 c0 -11 3 -14 6 -6 3 7 2 16 -1 19 -3 4 -6 -2 -5 -13z"/>
<path d="M2961 2104 c0 -11 3 -14 6 -6 3 7 2 16 -1 19 -3 4 -6 -2 -5 -13z"/>
<path d="M2741 2050 c0 -8 4 -22 9 -30 12 -18 12 -2 0 25 -6 13 -9 15 -9 5z"/>
<path d="M2770 1970 c0 -8 5 -22 10 -30 9 -13 10 -13 10 0 0 8 -5 22 -10 30
-9 13 -10 13 -10 0z"/>
<path d="M2940 1959 c0 -5 5 -7 10 -4 6 3 10 8 10 11 0 2 -4 4 -10 4 -5 0 -10
-5 -10 -11z"/>
<path d="M3063 1850 c1 -11 5 -20 9 -20 4 0 8 9 8 20 0 11 -4 20 -9 20 -6 0
-9 -9 -8 -20z"/>
<path d="M2931 1834 c0 -11 3 -14 6 -6 3 7 2 16 -1 19 -3 4 -6 -2 -5 -13z"/>
<path d="M2605 1820 c-3 -5 -1 -10 4 -10 6 0 11 5 11 10 0 6 -2 10 -4 10 -3 0
-8 -4 -11 -10z"/>
<path d="M3110 1822 c-17 -5 -54 -41 -48 -47 1 -2 15 -6 29 -10 24 -6 27 -3
32 27 5 38 6 37 -13 30z"/>
<path d="M2570 1805 c0 -8 7 -15 15 -15 9 0 12 6 9 15 -4 8 -10 15 -15 15 -5
0 -9 -7 -9 -15z"/>
<path d="M2862 1790 c0 -14 2 -19 5 -12 2 6 2 18 0 25 -3 6 -5 1 -5 -13z"/>
<path d="M2921 1778 c5 -10 12 -18 14 -18 3 0 5 8 5 18 0 10 -7 19 -14 19 -11
0 -13 -5 -5 -19z"/>
<path d="M2955 1649 c-4 -6 -5 -12 -2 -15 2 -3 7 2 10 11 7 17 1 20 -8 4z"/>
<path d="M3025 1630 c3 -5 8 -10 11 -10 2 0 4 5 4 10 0 6 -5 10 -11 10 -5 0
-7 -4 -4 -10z"/>
<path d="M2980 1614 c0 -10 31 -36 37 -31 10 10 -6 37 -22 37 -8 0 -15 -3 -15
-6z"/>
<path d="M2923 1523 c-16 -6 -17 -29 -1 -39 7 -5 8 -3 3 6 -5 8 -1 18 10 27
19 13 12 16 -12 6z"/>
<path d="M2475 1779 c-4 -6 -5 -12 -2 -15 2 -3 7 2 10 11 7 17 1 20 -8 4z"/>
<path d="M2247 1641 c3 -11 11 -22 19 -25 17 -7 17 4 0 27 -17 22 -25 22 -19
-2z"/>
<path d="M2597 1637 c-3 -8 -1 -20 4 -28 6 -10 9 -7 9 14 0 29 -5 35 -13 14z"/>
<path d="M2491 1424 c0 -11 3 -14 6 -6 3 7 2 16 -1 19 -3 4 -6 -2 -5 -13z"/>
<path d="M1729 1723 c-13 -16 -12 -17 4 -4 9 7 17 15 17 17 0 8 -8 3 -21 -13z"/>
<path d="M1247 1519 c7 -7 15 -10 18 -7 3 3 -2 9 -12 12 -14 6 -15 5 -6 -5z"/>
<path d="M1720 1480 c0 -5 5 -10 11 -10 5 0 7 5 4 10 -3 6 -8 10 -11 10 -2 0
-4 -4 -4 -10z"/>
<path d="M1880 1476 c0 -2 7 -6 15 -10 8 -3 15 -1 15 4 0 6 -7 10 -15 10 -8 0
-15 -2 -15 -4z"/>
<path d="M1585 1446 c11 -8 24 -12 28 -9 11 7 -12 23 -32 23 -11 0 -9 -4 4
-14z"/>
<path d="M1484 1438 c-4 -7 -4 -10 1 -6 4 4 15 2 24 -5 14 -11 14 -10 2 6 -16
20 -18 21 -27 5z"/>
<path d="M1644 1438 c1 -7 18 -18 37 -25 31 -12 32 -12 15 2 -11 8 -25 15 -32
15 -7 0 -15 5 -17 10 -3 6 -4 5 -3 -2z"/>
<path d="M3162 1421 c-29 -10 -56 -21 -59 -25 -10 -10 6 -7 29 5 12 6 40 12
64 13 24 0 44 6 45 11 0 16 -23 15 -79 -4z"/>
<path d="M862 1404 c-27 -19 -28 -40 -3 -53 22 -12 39 3 43 39 4 29 -11 34
-40 14z"/>
<path d="M920 1399 c0 -5 19 -9 42 -9 49 0 47 5 -4 13 -21 3 -38 2 -38 -4z"/>
<path d="M1660 1402 c0 -9 50 -35 56 -29 2 2 -10 11 -26 21 -17 9 -30 13 -30
8z"/>
<path d="M1537 1393 c-11 -10 -8 -20 7 -26 8 -3 13 0 12 8 -3 19 -11 27 -19
18z"/>
<path d="M1747 1377 c42 -34 83 -50 83 -33 0 7 -22 23 -49 35 -63 27 -69 26
-34 -2z"/>
<path d="M3338 1394 c-3 -3 -39 -12 -80 -20 -69 -14 -247 -92 -293 -128 -11
-9 30 9 90 39 117 59 201 85 273 85 29 0 42 4 40 12 -5 14 -22 21 -30 12z"/>
<path d="M3053 1364 l-28 -25 33 22 c17 13 32 24 32 26 0 8 -11 1 -37 -23z"/>
<path d="M1880 1370 c0 -5 4 -10 9 -10 5 0 38 -22 72 -50 55 -44 89 -61 89
-44 0 10 -64 59 -113 87 -57 31 -57 31 -57 17z"/>
<path d="M640 1302 c0 -6 -11 -36 -25 -66 -14 -30 -25 -69 -25 -88 0 -41 31
-123 40 -108 4 7 2 24 -6 39 -7 14 -16 43 -19 64 -6 30 -5 36 8 32 9 -4 16 1
20 14 3 13 14 21 29 22 21 1 19 2 -20 15 -10 3 -9 10 4 35 11 22 13 34 5 42
-8 8 -11 8 -11 -1z"/>
<path d="M2065 1250 c3 -5 11 -10 16 -10 6 0 7 5 4 10 -3 6 -11 10 -16 10 -6
0 -7 -4 -4 -10z"/>
<path d="M1228 1242 c-24 -5 -23 -39 1 -51 14 -8 21 -5 31 14 11 20 22 25 54
26 23 0 37 2 31 4 -18 6 -100 11 -117 7z"/>
<path d="M1128 1233 c7 -3 16 -2 19 1 4 3 -2 6 -13 5 -11 0 -14 -3 -6 -6z"/>
<path d="M750 1220 l-35 -6 37 -5 c43 -6 86 4 52 12 -10 3 -35 2 -54 -1z"/>
<path d="M868 1223 c12 -2 32 -2 45 0 12 2 2 4 -23 4 -25 0 -35 -2 -22 -4z"/>
<path d="M1007 1106 c-36 -79 -43 -120 -23 -148 9 -12 16 -30 16 -40 0 -10 5
-18 10 -18 6 0 10 6 10 13 0 15 -24 85 -32 93 -11 11 3 33 18 27 8 -3 14 1 14
11 0 9 6 16 13 16 8 0 7 4 -3 10 -13 8 -13 13 1 39 9 16 13 34 9 41 -5 8 -17
-8 -33 -44z"/>
<path d="M1135 1070 c-18 -8 -17 -9 8 -9 15 -1 27 4 27 9 0 12 -8 12 -35 0z"/>
<path d="M1238 1073 c6 -2 18 -2 25 0 6 3 1 5 -13 5 -14 0 -19 -2 -12 -5z"/>
<path d="M815 1009 c-61 -32 -67 -45 -7 -15 28 15 52 29 52 31 0 7 -2 7 -45
-16z"/>
<path d="M1905 900 c-3 -5 -1 -10 4 -10 6 0 11 5 11 10 0 6 -2 10 -4 10 -3 0
-8 -4 -11 -10z"/>
<path d="M1195 880 c-8 -13 5 -13 25 0 13 8 13 10 -2 10 -9 0 -20 -4 -23 -10z"/>
<path d="M1848 883 c7 -3 16 -2 19 1 4 3 -2 6 -13 5 -11 0 -14 -3 -6 -6z"/>
<path d="M1149 853 c-13 -15 -12 -15 9 -4 23 12 28 21 13 21 -5 0 -15 -7 -22
-17z"/>
<path d="M970 852 c0 -4 9 -8 20 -9 11 -1 20 2 20 8 0 5 -9 9 -20 9 -11 0 -20
-4 -20 -8z"/>
</g>
</svg>
