<?xml version="1.0" standalone="no"?>
<!DOCTYPE svg PUBLIC "-//W3C//DTD SVG 20010904//EN"
 "http://www.w3.org/TR/2001/REC-SVG-20010904/DTD/svg10.dtd">
<svg version="1.0" xmlns="http://www.w3.org/2000/svg"
 width="3918.000000pt" height="2963.000000pt" viewBox="0 0 3918.000000 2963.000000"
 preserveAspectRatio="xMidYMid meet">

<g transform="translate(0.000000,2963.000000) scale(0.100000,-0.100000)"
fill="#000000" stroke="none">
<path d="M20279 29606 c-2 -2 -38 -6 -79 -10 -573 -47 -1231 -335 -1870 -817
-582 -439 -1092 -955 -1886 -1910 l-121 -145 -104 -23 c-561 -125 -1151 -483
-1694 -1026 -572 -573 -1067 -1281 -1815 -2600 -29 -52 -323 -562 -420 -730
-51 -88 -100 -173 -110 -190 -9 -16 -79 -138 -155 -270 -160 -279 -375 -659
-430 -760 -21 -38 -55 -101 -76 -138 -22 -38 -39 -70 -39 -72 0 -2 -15 -30
-34 -62 -18 -32 -59 -107 -91 -168 -32 -60 -85 -159 -118 -220 -77 -144 -439
-870 -501 -1005 -365 -790 -601 -1401 -751 -1945 -25 -93 -48 -175 -50 -181
-2 -7 -49 -14 -117 -18 -63 -4 -125 -8 -138 -10 -14 -3 -56 -7 -95 -11 -696
-65 -1778 -335 -2805 -700 -832 -295 -1763 -707 -2660 -1175 -1370 -716 -2267
-1425 -2785 -2200 -384 -575 -539 -1196 -450 -1805 88 -607 489 -1230 1147
-1783 43 -36 78 -69 78 -73 0 -4 -61 -60 -135 -124 -1129 -973 -1754 -1890
-1916 -2812 -30 -172 -37 -502 -15 -686 19 -152 67 -363 116 -502 69 -199 217
-456 376 -655 83 -104 287 -309 409 -411 395 -332 944 -649 1550 -896 651
-265 1332 -454 2590 -718 1218 -256 2447 -404 3885 -467 453 -19 2177 -15
2375 7 17 2 109 6 205 9 96 4 193 9 215 11 22 2 94 7 160 10 187 9 973 66
1100 80 22 2 92 9 155 15 63 6 198 20 300 31 102 11 210 22 240 25 52 5 171
19 250 29 19 3 127 16 240 30 113 14 252 32 310 40 103 15 135 20 215 30 22 3
67 10 100 15 33 5 166 26 295 45 129 20 322 51 428 69 105 18 192 31 192 28 0
-2 -38 -61 -84 -131 -145 -217 -243 -387 -366 -636 -164 -332 -244 -550 -302
-823 -32 -151 -32 -418 0 -537 98 -361 394 -558 924 -615 434 -46 1087 58
1883 301 1269 388 2585 1139 3940 2249 343 280 788 670 1105 966 36 33 130
121 209 195 475 441 1020 989 1386 1394 203 224 283 319 685 820 466 580 601
738 819 955 166 166 153 166 165 -1 15 -204 39 -332 67 -360 26 -26 65 -24
126 6 53 27 86 62 120 130 20 39 108 336 115 385 6 43 76 -141 113 -295 39
-165 64 -228 99 -250 38 -25 67 -13 132 57 60 66 122 181 145 271 11 45 8 152
-7 247 -4 29 2 21 37 -43 23 -43 62 -98 86 -123 36 -38 49 -45 75 -42 26 2 38
12 61 50 38 61 46 133 30 263 -13 107 -17 205 -8 205 3 0 48 -20 99 -45 96
-47 190 -73 220 -62 40 16 29 38 -61 122 -100 93 -143 153 -173 240 -11 32
-20 59 -20 61 0 1 33 12 73 24 81 24 219 94 278 141 22 17 69 42 105 55 212
77 374 236 523 515 82 153 157 348 202 524 106 410 63 788 -120 1066 -27 41
-48 75 -48 75 1 1 139 87 307 191 301 188 372 233 1070 674 1046 663 1749
1079 2515 1488 1342 718 2702 1260 3725 1485 618 136 1266 170 1735 91 360
-61 671 -201 882 -398 134 -126 223 -265 282 -442 80 -239 83 -579 7 -897
-128 -540 -447 -1033 -876 -1357 -63 -47 -244 -161 -257 -161 -15 0 -73 -53
-73 -67 0 -9 16 -31 36 -49 65 -62 127 -46 338 84 184 114 431 341 573 528
252 331 413 695 490 1104 25 137 25 518 0 642 -60 294 -168 508 -348 686 -279
276 -690 435 -1274 492 -129 13 -571 16 -695 6 -170 -15 -201 -18 -325 -32
-586 -68 -1205 -227 -1930 -494 -212 -78 -673 -268 -875 -362 -25 -11 -65 -29
-90 -40 -215 -92 -1115 -537 -1455 -719 -222 -119 -621 -339 -750 -414 -49
-29 -184 -108 -300 -176 -627 -366 -1170 -705 -2751 -1720 l-60 -39 -82 42
c-77 40 -89 43 -180 46 -69 3 -116 -1 -162 -13 -112 -29 -250 -108 -250 -143
0 -9 -15 -26 -33 -38 l-32 -21 -89 69 c-48 37 -95 72 -104 77 -12 7 8 34 99
137 62 71 116 131 119 134 51 48 653 769 955 1145 93 116 210 260 260 321 49
61 155 192 235 290 217 269 446 546 640 774 121 143 430 498 491 565 20 22 85
94 144 160 1211 1343 2466 2402 3420 2885 850 430 1542 528 2022 286 234 -118
410 -336 508 -629 187 -561 87 -1282 -246 -1781 -65 -96 -158 -213 -208 -260
-50 -48 -35 -95 35 -110 48 -10 92 13 156 83 525 567 696 1505 402 2202 -172
408 -470 653 -894 734 -119 23 -377 27 -525 10 -825 -99 -1780 -576 -2760
-1379 -398 -326 -650 -559 -1215 -1125 -728 -728 -1108 -1152 -2001 -2232 -47
-57 -269 -333 -494 -614 -497 -620 -636 -793 -915 -1135 -118 -146 -239 -295
-268 -332 l-53 -67 -62 37 c-34 20 -63 40 -65 44 -2 5 -10 8 -18 8 -8 0 -14 4
-14 9 0 13 -131 79 -211 106 -46 16 -134 31 -257 45 -180 21 -190 21 -307 5
-326 -46 -525 -129 -610 -256 -16 -24 -48 -64 -70 -89 -23 -25 -60 -71 -84
-103 l-43 -59 -25 24 c-31 29 -112 139 -148 201 l-27 47 16 98 c51 313 91 679
136 1257 16 215 44 541 60 725 71 791 125 1555 155 2165 3 61 8 148 10 195 29
515 42 1126 42 1960 0 837 -7 1177 -37 1750 -10 188 -12 221 -30 505 -48 734
-131 1512 -240 2245 -151 1012 -367 2015 -647 3010 -487 1733 -1134 3067
-1972 4070 -263 314 -475 519 -747 722 -437 325 -892 515 -1374 573 -110 13
-400 21 -411 11z m491 -231 c122 -15 325 -61 425 -96 278 -97 559 -257 820
-466 133 -106 490 -457 480 -473 -3 -6 -2 -9 3 -8 5 2 29 -18 52 -44 49 -56
47 -64 -3 -11 l-35 37 -27 -20 c-47 -33 -108 -72 -157 -100 -27 -15 -48 -31
-48 -36 0 -4 -5 -8 -10 -8 -6 0 -23 -8 -38 -18 -15 -11 -47 -32 -72 -47 -25
-16 -49 -34 -55 -40 -10 -11 -90 -60 -137 -84 -15 -8 -36 -22 -46 -31 -27 -25
-115 -82 -187 -120 -68 -36 -84 -46 -105 -65 -11 -10 -20 -15 -20 -10 0 4 -7
1 -16 -6 -19 -15 -33 -24 -105 -64 -30 -16 -57 -28 -60 -27 -4 0 -15 -8 -24
-18 -10 -11 -22 -20 -26 -20 -5 0 -35 -17 -66 -37 -32 -21 -61 -37 -64 -36 -4
1 -15 -7 -24 -17 -10 -11 -26 -20 -35 -20 -10 0 -28 -8 -41 -18 -13 -10 -31
-22 -39 -25 -8 -4 -28 -16 -45 -27 -16 -11 -37 -23 -45 -26 -8 -4 -22 -12 -30
-19 -8 -7 -51 -31 -95 -55 -44 -23 -87 -48 -95 -55 -8 -7 -51 -34 -95 -60 -44
-26 -85 -53 -90 -59 -6 -6 -19 -16 -30 -23 -11 -7 -50 -30 -87 -53 -38 -22
-68 -45 -68 -50 0 -6 -5 -10 -11 -10 -6 0 -31 -13 -56 -30 -24 -16 -46 -30
-49 -30 -6 0 -63 -40 -82 -57 -7 -7 -46 -32 -85 -55 -40 -22 -76 -47 -80 -55
-4 -7 -14 -13 -21 -13 -7 0 -21 -9 -31 -20 -10 -11 -22 -20 -27 -20 -11 0 -92
-53 -96 -63 -2 -4 -25 -19 -50 -32 -62 -33 -80 -44 -127 -81 -22 -17 -74 -50
-115 -75 -41 -24 -79 -49 -85 -55 -5 -6 -46 -32 -90 -59 -44 -27 -82 -52 -85
-55 -3 -3 -45 -30 -95 -60 -49 -29 -94 -60 -98 -67 -4 -7 -12 -13 -18 -13 -5
0 -22 -8 -37 -18 -15 -11 -47 -32 -72 -48 -25 -16 -49 -35 -53 -41 -4 -7 -13
-13 -18 -13 -6 0 -30 -13 -54 -30 -24 -16 -47 -30 -50 -30 -4 0 -17 -8 -30
-19 -19 -14 -21 -21 -12 -31 7 -7 -44 30 -113 82 -214 161 -453 312 -661 416
l-66 33 -17 97 c-30 172 -35 205 -46 307 -22 203 -28 335 -24 530 4 261 28
431 90 657 l27 96 116 105 c547 494 1044 808 1551 981 130 44 337 98 430 111
255 38 491 45 680 20z m1841 -1162 c13 -16 12 -17 -3 -4 -17 13 -22 21 -14 21
2 0 10 -8 17 -17z m-246 -1440 c119 -29 264 -114 445 -262 125 -102 416 -390
521 -516 361 -431 629 -905 853 -1508 301 -811 489 -1731 586 -2867 6 -69 13
-147 15 -175 2 -27 7 -86 10 -130 3 -44 8 -105 10 -135 3 -30 9 -131 15 -225
15 -251 20 -332 25 -410 3 -38 7 -131 10 -205 6 -156 10 -236 30 -635 10 -204
13 -340 7 -325 -12 27 -31 18 -209 -94 -43 -27 -82 -49 -88 -50 -6 -1 -29 -13
-50 -26 -22 -14 -44 -26 -50 -28 -5 -3 -26 -14 -45 -27 -64 -42 -125 -78 -130
-78 -3 0 -22 -11 -42 -23 -21 -13 -40 -24 -44 -24 -3 0 -19 -9 -35 -21 -22
-15 -30 -17 -34 -7 -2 7 -27 112 -55 233 -28 121 -53 227 -55 235 -2 8 -22 87
-44 175 -119 476 -266 975 -437 1480 -142 422 -192 564 -204 580 -4 6 -21 48
-38 95 -35 99 -191 508 -287 755 -37 94 -79 204 -95 245 -16 41 -52 134 -80
205 -136 346 -286 736 -387 1005 -230 617 -509 1448 -576 1715 -60 239 -77
343 -84 506 -10 230 35 370 151 469 107 91 226 114 391 73z m-5380 -227 c167
-13 445 -72 575 -124 14 -5 45 -18 70 -27 25 -10 64 -26 88 -37 24 -10 62 -26
85 -35 40 -16 119 -56 217 -110 44 -25 295 -180 315 -195 6 -4 48 -36 95 -69
47 -34 87 -65 90 -68 3 -4 29 -26 59 -49 32 -25 47 -42 37 -42 -10 0 -23 -6
-30 -12 -7 -7 -48 -44 -91 -83 -43 -38 -95 -87 -117 -107 -21 -21 -42 -38 -47
-38 -4 0 -14 -11 -21 -25 -7 -14 -17 -25 -21 -25 -4 0 -34 -26 -67 -57 -33
-32 -98 -93 -144 -136 -45 -42 -93 -87 -105 -99 -13 -13 -23 -20 -23 -16 0 4
-13 -6 -28 -20 -46 -44 -94 -85 -147 -127 -27 -22 -55 -44 -61 -50 -32 -29
-72 -63 -99 -83 -42 -33 -134 -112 -167 -143 -15 -15 -29 -24 -32 -22 -2 3
-11 -4 -18 -16 -7 -12 -18 -21 -25 -21 -7 0 -17 -9 -23 -20 -6 -11 -14 -19
-18 -18 -4 2 -26 -16 -49 -39 -23 -22 -44 -39 -47 -36 -2 3 -11 -4 -18 -16 -7
-12 -18 -21 -25 -21 -7 0 -17 -9 -23 -20 -6 -11 -15 -20 -20 -20 -5 0 -31 -21
-59 -47 -27 -27 -82 -77 -122 -113 -81 -72 -156 -143 -258 -240 -38 -36 -112
-105 -166 -155 -53 -49 -115 -107 -136 -127 -21 -21 -41 -38 -43 -38 -3 0 -48
-43 -101 -95 -53 -52 -98 -95 -100 -95 -2 0 -32 -27 -66 -60 -34 -33 -63 -60
-65 -60 -2 0 -23 -19 -47 -42 -36 -36 -129 -122 -256 -237 -100 -91 -225 -207
-288 -268 -42 -40 -76 -73 -78 -73 -1 0 -32 -28 -67 -62 -36 -35 -100 -94
-143 -133 -43 -38 -108 -99 -145 -135 -37 -36 -93 -89 -123 -118 l-55 -53 -42
78 c-58 107 -231 462 -270 553 -177 418 -295 830 -346 1210 -19 142 -23 492
-6 603 10 63 16 74 93 175 275 356 592 685 883 916 393 312 800 513 1216 600
175 36 173 36 290 43 58 3 106 7 108 8 3 3 138 -3 227 -9z m1860 -636 c3 -6
-1 -7 -9 -4 -18 7 -21 14 -7 14 6 0 13 -4 16 -10z m1512 -51 c114 -28 297
-131 458 -259 120 -96 321 -303 412 -425 167 -222 371 -599 608 -1125 54 -118
151 -327 217 -465 386 -805 614 -1336 886 -2070 253 -679 524 -1563 668 -2177
2 -10 6 -26 8 -35 2 -10 13 -54 25 -99 25 -97 107 -457 114 -499 3 -16 8 -37
11 -45 3 -8 7 -32 10 -52 3 -21 17 -88 30 -150 13 -62 26 -127 29 -145 3 -17
7 -35 10 -40 3 -4 8 -30 11 -58 4 -27 11 -68 16 -90 9 -42 6 -60 -5 -26 -4 14
-11 18 -23 14 -20 -8 -190 -110 -212 -128 -8 -7 -26 -16 -40 -20 -14 -4 -59
-30 -99 -56 -61 -39 -78 -46 -90 -36 -12 10 -13 9 -4 -8 10 -18 75 -281 104
-420 7 -33 18 -63 23 -67 6 -4 7 -8 2 -8 -21 0 -118 64 -126 84 -10 24 -80
343 -135 616 -20 102 -43 210 -51 240 -7 30 -41 165 -74 300 -33 134 -79 303
-101 375 -23 71 -49 157 -59 190 -83 277 -326 914 -475 1250 -151 338 -190
422 -357 755 -149 298 -248 488 -307 590 -21 36 -61 106 -88 155 -199 357
-324 567 -475 793 -50 75 -125 198 -166 272 -339 613 -614 1044 -965 1515
-129 173 -175 259 -252 470 -111 307 -116 554 -15 705 65 98 159 168 253 190
41 10 163 4 224 -11z m-1692 -97 c-3 -3 -11 0 -18 7 -9 10 -8 11 6 5 10 -3 15
-9 12 -12z m60 -47 c39 -32 29 -32 -15 0 -19 14 -30 25 -24 25 5 -1 23 -12 39
-25z m95 -1479 c180 -46 333 -124 615 -311 223 -149 404 -295 599 -485 292
-286 494 -535 723 -895 531 -832 929 -1846 1288 -3283 63 -254 230 -977 239
-1037 4 -22 9 -48 12 -57 5 -18 13 -51 20 -88 2 -14 40 -182 83 -375 44 -192
77 -352 75 -354 -2 -2 -7 10 -10 27 -7 36 -22 40 -45 15 -9 -10 -26 -25 -38
-33 -13 -8 -34 -25 -47 -37 -14 -13 -56 -47 -93 -77 -38 -30 -84 -69 -102 -85
-18 -17 -39 -31 -45 -31 -7 0 -14 -7 -18 -15 -3 -8 -13 -15 -22 -15 -10 0 -15
-3 -12 -6 6 -5 -38 -54 -49 -54 -6 0 -29 -19 -61 -52 -9 -10 -21 -18 -28 -18
-6 0 -17 -11 -24 -25 -7 -14 -19 -25 -26 -25 -22 0 -36 -37 -24 -62 11 -22 10
-22 -4 -4 -9 11 -16 24 -16 29 0 4 -11 33 -25 63 -14 30 -25 56 -25 59 0 7
-237 558 -278 645 -22 47 -53 114 -69 150 -203 448 -674 1355 -843 1625 -21
33 -93 155 -160 270 -68 116 -304 512 -525 880 -664 1107 -785 1317 -1140
1980 -312 581 -426 850 -480 1135 -61 323 107 565 395 569 38 0 104 -9 160
-23z m-1808 -1241 c215 -55 484 -201 728 -396 105 -85 248 -227 366 -364 86
-101 304 -390 407 -541 291 -424 389 -565 521 -749 393 -549 862 -1285 1214
-1905 310 -547 660 -1238 872 -1725 10 -22 34 -78 55 -125 72 -165 187 -436
241 -570 30 -74 61 -148 68 -165 16 -33 86 -214 90 -230 2 -5 9 -23 15 -40 7
-16 22 -55 33 -85 23 -64 36 -97 51 -125 9 -18 9 -19 -8 -5 -14 11 -19 12 -22
3 -3 -7 -8 -13 -12 -13 -4 0 -26 -17 -47 -37 -22 -21 -55 -49 -73 -63 -18 -14
-40 -32 -49 -40 -10 -9 -39 -33 -67 -55 -27 -21 -59 -47 -70 -57 -11 -10 -31
-28 -45 -39 l-24 -20 -18 33 c-29 55 -20 25 18 -58 81 -180 152 -347 160 -379
3 -14 10 -28 15 -31 5 -3 9 -10 9 -16 0 -11 -25 -7 -84 15 -38 14 -39 15 -125
228 -48 118 -111 277 -140 354 -67 177 -140 351 -288 685 -33 75 -215 435
-279 552 -288 529 -595 1013 -993 1568 -112 156 -407 547 -460 609 -25 30
-104 127 -175 215 -306 381 -440 530 -914 1014 -519 531 -720 749 -1008 1092
-347 414 -532 755 -551 1016 -9 128 29 245 113 343 99 115 280 155 476 106z
m-3334 -691 c89 -37 152 -137 151 -239 0 -52 -25 -163 -28 -127 -1 9 -11 8
-38 -6 -21 -10 -67 -29 -103 -42 -36 -13 -69 -27 -74 -32 -6 -4 -17 -8 -25 -8
-9 0 -37 -11 -63 -24 l-47 -24 -50 34 c-80 54 -129 131 -138 218 -7 65 9 122
47 174 57 79 118 103 243 96 49 -2 105 -11 125 -20z m2472 -568 c117 -20 229
-49 335 -89 151 -57 177 -74 262 -173 43 -50 262 -300 488 -555 661 -749 846
-962 1146 -1319 1200 -1431 1927 -2569 2412 -3775 33 -82 60 -162 61 -177 1
-14 4 -24 7 -22 5 3 54 -140 54 -161 0 -5 5 -17 10 -25 5 -8 15 -30 21 -48 9
-26 9 -31 -1 -22 -11 9 -48 -15 -107 -72 -10 -10 -20 -18 -23 -18 -3 0 -25
-19 -48 -41 -23 -23 -35 -38 -27 -34 13 8 13 7 1 -8 -14 -18 -36 -24 -26 -7
10 16 -1 11 -16 -7 -12 -15 -12 -16 1 -8 9 5 8 0 -4 -13 -23 -26 -45 -30 -25
-4 13 15 12 16 -3 3 -10 -7 -16 -17 -13 -21 2 -4 -10 -22 -27 -40 -17 -19 -29
-26 -25 -17 3 9 4 17 1 17 -5 0 -140 -108 -181 -145 -6 -5 -30 -26 -53 -45
-24 -19 -51 -42 -61 -50 -9 -8 -34 -28 -55 -45 -37 -30 -94 -80 -125 -110 -9
-8 -18 -15 -21 -15 -4 0 -28 -20 -55 -45 -49 -46 -63 -54 -63 -33 0 6 -3 9 -6
5 -3 -3 5 -25 19 -49 43 -75 200 -383 190 -373 -6 6 -77 109 -158 230 -279
414 -666 933 -1079 1449 -186 232 -252 310 -428 506 -227 253 -419 448 -748
756 -129 120 -556 489 -676 584 -17 14 -130 104 -250 201 -258 206 -324 258
-544 427 -91 69 -167 129 -170 132 -3 3 -81 64 -175 135 -93 70 -175 133 -181
139 -7 6 -24 20 -38 30 -14 10 -26 22 -26 25 0 7 92 51 101 48 4 -1 16 6 27
16 12 11 25 16 30 13 5 -3 15 1 22 9 7 8 16 15 20 15 4 0 43 17 86 37 44 20
84 37 91 38 6 0 21 9 32 19 12 11 21 16 21 12 0 -3 17 2 38 13 20 10 40 19 45
20 4 0 22 9 40 18 17 10 37 18 44 18 6 0 21 9 32 19 12 11 21 16 21 12 0 -4
19 4 43 17 23 13 46 24 50 24 5 0 23 8 40 16 18 9 39 18 47 21 8 3 22 10 30
15 8 5 35 18 60 29 150 68 160 73 153 85 -7 12 -95 147 -308 472 -275 421
-502 762 -844 1274 -200 299 -366 551 -368 561 -5 19 8 26 137 64 76 23 205
48 300 59 70 8 357 -3 440 -17z m-4000 -2169 c159 -41 300 -116 381 -204 65
-70 147 -187 178 -253 37 -80 51 -148 51 -253 0 -85 -37 -267 -51 -246 -5 8
-14 7 -35 -4 -24 -13 -46 -22 -74 -32 -3 -1 -13 -5 -22 -8 -10 -4 -26 -10 -35
-14 -10 -3 -20 -7 -23 -7 -3 -1 -16 -8 -30 -16 -14 -7 -27 -13 -30 -13 -3 0
-16 -4 -30 -9 -14 -6 -29 -11 -35 -12 -5 -1 -21 -8 -35 -16 -14 -8 -34 -15
-45 -17 -10 -2 -30 -10 -42 -18 -13 -9 -23 -13 -23 -10 0 3 -10 0 -22 -7 -13
-7 -25 -13 -28 -13 -3 -1 -18 -7 -35 -14 -16 -7 -34 -14 -40 -15 -5 -2 -21 -8
-35 -14 -39 -18 -105 -43 -105 -41 0 1 -11 -4 -25 -11 -14 -8 -27 -15 -30 -16
-3 0 -14 -4 -25 -8 -39 -15 -50 -19 -55 -21 -16 -6 -49 -19 -77 -31 -17 -8
-36 -14 -41 -14 -6 0 -23 -6 -39 -14 -15 -8 -48 -24 -73 -36 l-44 -21 -56 28
c-34 17 -91 64 -151 123 -80 80 -103 109 -137 180 -66 137 -86 224 -86 370 0
141 18 220 79 340 103 202 325 353 570 389 98 14 250 5 355 -22z m12753 -250
c2 -20 0 -34 -4 -31 -4 2 -7 20 -7 40 0 44 8 39 11 -9z m4 -179 c-2 -13 -4 -5
-4 17 -1 22 1 32 4 23 2 -10 2 -28 0 -40z m10 -110 c-3 -8 -6 -5 -6 6 -1 11 2
17 5 13 3 -3 4 -12 1 -19z m0 -40 c-3 -8 -6 -5 -6 6 -1 11 2 17 5 13 3 -3 4
-12 1 -19z m-733 -23 c3 -8 1 -15 -4 -15 -6 0 -10 7 -10 15 0 8 2 15 4 15 2 0
6 -7 10 -15z m10 -51 c3 -8 2 -12 -4 -9 -6 3 -10 10 -10 16 0 14 7 11 14 -7z
m-8569 -32 c-3 -3 -11 0 -18 7 -9 10 -8 11 6 5 10 -3 15 -9 12 -12z m8572 -14
c-3 -8 -6 -5 -6 6 -1 11 2 17 5 13 3 -3 4 -12 1 -19z m-8532 -16 c-3 -3 -11 0
-18 7 -9 10 -8 11 6 5 10 -3 15 -9 12 -12z m8543 -27 c-3 -3 -9 2 -12 12 -6
14 -5 15 5 6 7 -7 10 -15 7 -18z m-8503 -3 c-3 -3 -11 0 -18 7 -9 10 -8 11 6
5 10 -3 15 -9 12 -12z m795 -895 c457 -339 706 -537 975 -773 582 -510 1138
-1149 1825 -2094 403 -554 963 -1380 936 -1380 -9 0 -181 206 -280 336 -59 76
-195 261 -303 409 -377 517 -531 711 -838 1060 -494 561 -968 961 -1289 1089
-279 112 -529 88 -691 -65 -194 -183 -178 -472 52 -909 172 -329 423 -657 938
-1226 383 -422 504 -573 763 -949 l34 -50 -33 35 c-19 20 -110 121 -204 225
-709 790 -1659 1661 -2800 2566 -600 476 -747 598 -970 803 -193 177 -312 300
-337 345 -12 24 -37 51 -53 60 -62 33 -317 346 -430 526 -15 25 -16 28 -2 16
10 -8 24 -10 34 -5 10 4 20 8 23 8 3 1 25 11 50 23 127 60 166 77 172 76 3 -2
12 4 18 12 7 8 18 15 24 15 7 0 37 12 67 26 72 34 151 70 169 78 8 3 22 10 30
15 18 10 94 43 97 42 2 0 23 11 48 24 25 14 45 23 45 19 0 -4 9 1 20 11 11 10
20 15 20 11 0 -4 21 5 48 20 26 14 49 26 52 26 3 0 21 8 41 19 20 10 39 16 41
13 3 -2 11 2 18 11 7 8 18 15 25 15 7 0 30 9 52 20 81 41 167 80 179 80 6 0
17 7 24 15 6 8 15 14 18 12 7 -2 107 43 155 69 15 8 27 12 27 8 0 -4 9 1 21
12 12 10 22 18 23 16 2 -6 75 28 81 38 4 6 10 8 15 5 5 -3 11 -1 14 3 3 5 -15
23 -39 41 -24 17 -47 36 -50 41 -6 9 327 -236 1145 -843z m7728 808 c-3 -3 -9
2 -12 12 -6 14 -5 15 5 6 7 -7 10 -15 7 -18z m-344 -681 c3 -8 2 -12 -4 -9 -6
3 -10 10 -10 16 0 14 7 11 14 -7z m-10113 -66 c11 -21 11 -22 -4 -9 -10 7 -17
17 -17 22 0 15 9 10 21 -13z m8713 -664 c3 -8 2 -12 -4 -9 -6 3 -10 10 -10 16
0 14 7 11 14 -7z m-8784 -24 c36 -6 115 -27 175 -47 l110 -35 115 -110 c296
-286 599 -555 910 -810 179 -146 216 -175 870 -683 735 -570 1083 -876 1665
-1459 188 -188 412 -420 500 -516 163 -180 477 -544 503 -583 21 -32 -91 76
-533 514 -477 471 -582 567 -828 753 -245 185 -531 359 -832 505 -304 148
-501 224 -715 276 -135 33 -175 38 -310 42 -134 5 -167 2 -243 -16 -403 -96
-629 -423 -551 -797 46 -226 177 -480 372 -722 173 -216 382 -413 808 -763
331 -272 617 -520 874 -755 206 -188 844 -823 836 -831 -3 -3 -38 22 -78 54
-368 299 -1033 761 -1943 1351 -611 396 -716 465 -978 640 -1160 773 -1698
1233 -2028 1736 -157 238 -275 524 -320 771 -37 208 -17 468 48 630 55 139
109 232 195 342 84 109 185 203 303 283 83 56 305 166 355 175 3 0 21 6 40 13
73 25 267 59 344 61 44 1 82 3 83 4 4 5 190 -12 253 -23z m8800 -44 c0 -26 -6
-18 -14 19 -5 22 -4 26 4 15 5 -8 10 -24 10 -34z m14 -62 c3 -8 2 -12 -4 -9
-6 3 -10 10 -10 16 0 14 7 11 14 -7z m929 -105 c215 -156 406 -418 542 -744
173 -416 283 -941 341 -1625 17 -206 30 -1069 15 -1035 -5 11 -31 90 -59 176
-105 328 -267 605 -423 727 -33 25 -61 55 -64 66 -2 12 -9 50 -15 86 -122 747
-318 1714 -475 2355 -8 33 -15 66 -15 73 0 15 81 -27 153 -79z m-909 15 c3 -8
2 -12 -4 -9 -6 3 -10 10 -10 16 0 14 7 11 14 -7z m20 -90 c3 -8 2 -12 -4 -9
-6 3 -10 10 -10 16 0 14 7 11 14 -7z m10 -40 c3 -8 2 -12 -4 -9 -6 3 -10 10
-10 16 0 14 7 11 14 -7z m-716 -169 c-3 -3 -9 2 -12 12 -6 14 -5 15 5 6 7 -7
10 -15 7 -18z m16 -31 c3 -8 2 -12 -4 -9 -6 3 -10 10 -10 16 0 14 7 11 14 -7z
m14 -49 c-3 -3 -9 2 -12 12 -6 14 -5 15 5 6 7 -7 10 -15 7 -18z m40 -100 c-3
-3 -9 2 -12 12 -6 14 -5 15 5 6 7 -7 10 -15 7 -18z m-13883 -586 c84 -31 135
-75 173 -149 31 -59 34 -71 29 -131 -4 -68 -43 -161 -58 -138 -4 6 -11 9 -16
6 -5 -3 -90 -22 -189 -42 -98 -20 -186 -38 -195 -41 -27 -8 -105 78 -124 137
-25 75 -17 182 18 242 72 122 220 169 362 116z m2987 -115 c4 -3 24 -7 45 -9
136 -17 220 -71 272 -177 26 -52 31 -72 30 -132 0 -66 -27 -165 -41 -151 -3 3
-50 -13 -104 -36 -54 -22 -108 -43 -119 -47 -11 -3 -31 -11 -45 -19 -14 -7
-32 -13 -40 -13 -9 0 -20 -4 -25 -8 -6 -5 -26 -15 -45 -22 -19 -7 -48 -19 -65
-25 -54 -23 -70 -28 -77 -27 -5 1 -8 -2 -8 -7 0 -5 -10 -11 -22 -13 -13 -2
-22 -9 -20 -16 4 -22 -72 24 -111 67 -68 75 -98 156 -98 262 0 178 115 325
289 370 61 16 161 17 184 3z m10682 -40 c3 -8 2 -12 -4 -9 -6 3 -10 10 -10 16
0 14 7 11 14 -7z m-11909 -609 c42 -265 128 -572 219 -780 19 -44 33 -81 31
-83 -6 -6 -149 103 -234 178 -44 38 -107 107 -142 152 -188 251 -179 461 31
702 l55 63 7 -36 c4 -20 19 -108 33 -196z m11173 50 c-3 -3 -9 2 -12 12 -6 14
-5 15 5 6 7 -7 10 -15 7 -18z m12 -40 c0 -8 -4 -15 -10 -15 -5 0 -7 7 -4 15 4
8 8 15 10 15 2 0 4 -7 4 -15z m-70 -10 c0 -2 -10 -9 -22 -15 -22 -11 -22 -10
-4 4 21 17 26 19 26 11z m37 -1 c-3 -3 -12 -4 -19 -1 -8 3 -5 6 6 6 11 1 17
-2 13 -5z m-87 -18 c0 -2 -7 -7 -16 -10 -8 -3 -12 -2 -9 4 6 10 25 14 25 6z
m-50 -21 c-7 -8 -18 -15 -24 -15 -6 0 -2 7 8 15 25 19 32 19 16 0z m-13795
-195 c240 -5 709 -57 1042 -116 49 -8 111 -19 140 -24 270 -45 685 -151 998
-255 348 -115 496 -179 909 -393 16 -8 36 -28 45 -44 9 -17 42 -75 74 -130 32
-55 57 -101 55 -102 -2 -2 -102 21 -223 50 -547 134 -1062 183 -1407 134 -596
-85 -952 -381 -925 -770 11 -151 77 -325 181 -479 31 -46 55 -85 54 -87 -2 -1
-41 -12 -88 -24 -47 -12 -130 -35 -185 -52 -55 -16 -122 -36 -150 -44 -27 -9
-68 -22 -90 -29 -22 -8 -94 -33 -160 -55 -66 -23 -168 -59 -226 -81 l-106 -41
-99 27 c-87 24 -229 66 -374 111 -105 33 -353 127 -448 170 -29 13 -55 24 -58
24 -13 0 -292 144 -382 197 -302 177 -487 347 -582 533 -74 146 -97 336 -57
480 60 217 258 477 492 645 100 72 309 179 425 218 232 79 491 124 765 134 88
3 161 6 162 7 1 1 25 0 55 -1 29 -1 103 -2 163 -3z m13565 0 c0 -5 -5 -10 -11
-10 -5 0 -7 5 -4 10 3 6 8 10 11 10 2 0 4 -4 4 -10z m-27 -35 c-3 -9 -8 -14
-10 -11 -3 3 -2 9 2 15 9 16 15 13 8 -4z m697 -50 c334 -100 643 -379 890
-805 64 -109 181 -348 233 -475 214 -521 361 -1063 477 -1755 48 -294 50 -281
-15 -151 -149 303 -330 543 -509 677 -159 120 -367 157 -508 91 -140 -66 -190
-174 -189 -412 0 -272 49 -469 315 -1280 63 -192 114 -351 112 -352 -1 -2 -29
70 -61 159 -72 204 -121 334 -251 663 -171 435 -245 605 -564 1300 -294 640
-421 1006 -495 1430 -18 103 -35 297 -35 395 1 200 41 342 124 437 40 46 126
93 190 104 68 13 197 1 286 -26z m-728 3 c-7 -7 -12 -8 -12 -2 0 14 12 26 19
19 2 -3 -1 -11 -7 -17z m-19 -33 c-3 -9 -8 -14 -10 -11 -3 3 -2 9 2 15 9 16
15 13 8 -4z m-20 -40 c-3 -9 -8 -14 -10 -11 -3 3 -2 9 2 15 9 16 15 13 8 -4z
m-13 -40 c0 -8 -4 -15 -10 -15 -5 0 -7 7 -4 15 4 8 8 15 10 15 2 0 4 -7 4 -15z
m-36 -109 c-3 -21 -8 -35 -11 -32 -2 2 -1 20 3 40 3 21 8 35 11 32 2 -2 1 -20
-3 -40z m-17 -68 c-3 -8 -6 -5 -6 6 -1 11 2 17 5 13 3 -3 4 -12 1 -19z m-10
-40 c-3 -8 -6 -5 -6 6 -1 11 2 17 5 13 3 -3 4 -12 1 -19z m-10 -80 c-3 -8 -6
-5 -6 6 -1 11 2 17 5 13 3 -3 4 -12 1 -19z m-8062 -667 c152 -70 224 -198 182
-321 -7 -19 -16 -35 -22 -35 -5 0 -36 -13 -69 -28 -32 -15 -63 -27 -68 -27 -5
0 -25 -9 -46 -19 -20 -10 -41 -19 -47 -20 -5 -1 -42 -15 -82 -31 -98 -41 -114
-39 -174 16 -67 63 -110 153 -117 242 -4 66 -4 68 39 131 73 106 126 133 254
128 66 -3 94 -9 150 -36z m-8850 -86 c131 -13 303 -97 415 -202 65 -61 87 -90
129 -172 68 -133 85 -201 78 -316 -6 -93 -22 -154 -62 -238 -16 -34 -24 -44
-29 -32 -4 12 -10 13 -23 7 -16 -9 -55 -18 -153 -36 -38 -7 -70 -15 -88 -20
-9 -3 -28 -7 -42 -10 -14 -3 -36 -8 -50 -11 -14 -3 -41 -8 -60 -11 -19 -3 -42
-7 -50 -10 -8 -3 -26 -7 -40 -9 -14 -2 -63 -13 -110 -25 -47 -11 -94 -22 -105
-24 -26 -4 -109 -19 -115 -21 -33 -9 -59 -16 -75 -19 -40 -6 -80 -19 -93 -29
-13 -11 -23 -4 -100 68 -146 134 -221 355 -193 561 32 228 157 402 356 495
126 59 230 73 410 54z m17208 -982 c39 -7 86 -18 103 -24 32 -10 32 -9 104
-174 10 -22 70 -157 133 -300 63 -143 150 -341 192 -440 42 -99 87 -205 100
-235 13 -30 35 -84 48 -120 14 -36 34 -90 46 -120 12 -30 16 -48 9 -39 -66 83
-178 183 -238 213 -72 37 -180 59 -246 51 -101 -11 -194 -67 -228 -135 -21
-41 -35 -113 -31 -150 15 -120 20 -151 41 -222 4 -12 0 -18 -11 -18 -9 0 -26
-5 -38 -12 -12 -7 -27 -13 -33 -14 -6 -1 -27 -9 -45 -17 -34 -15 -70 -29 -79
-31 -3 -1 -15 -7 -27 -14 -13 -7 -23 -10 -23 -6 0 3 -6 2 -12 -3 -7 -6 -30
-16 -51 -22 l-37 -13 30 -36 c16 -20 30 -40 30 -45 0 -14 -98 119 -196 265
-262 390 -344 619 -331 925 22 512 350 819 790 736z m-6506 -67 c58 -8 144
-50 197 -97 56 -49 86 -110 86 -173 0 -55 -19 -128 -31 -120 -5 2 -16 0 -26
-5 -18 -11 -87 -39 -101 -42 -4 0 -24 -10 -44 -20 -21 -10 -41 -19 -46 -19 -5
0 -27 -8 -48 -17 -22 -9 -41 -17 -44 -18 -3 -1 -22 -9 -42 -18 -57 -26 -75
-21 -133 34 -93 88 -141 213 -115 302 16 57 86 146 135 171 40 21 113 35 150
30 11 -1 39 -5 62 -8z m-8097 -310 c19 -2 118 -7 220 -12 102 -4 196 -8 210
-9 14 -1 63 -3 109 -4 51 0 81 -5 75 -10 -5 -5 -67 -34 -139 -64 -453 -192
-1179 -558 -1655 -835 -268 -157 -711 -427 -830 -508 -19 -13 -41 -24 -48 -24
-23 0 -133 93 -224 189 -254 267 -360 593 -260 802 55 115 136 191 287 267
134 68 367 136 559 162 41 6 84 13 95 15 12 2 58 7 104 11 45 3 84 8 87 9 3 2
64 7 135 10 72 4 132 9 135 12 6 6 1090 -4 1140 -11z m2566 -524 c31 -25 45
-58 38 -87 -5 -20 -21 -33 -61 -51 -71 -31 -97 -30 -122 2 -23 30 -28 90 -8
115 32 41 115 53 153 21z m2044 -192 c449 -34 828 -96 1490 -244 1112 -248
1824 -442 2465 -670 272 -97 564 -229 830 -373 50 -27 135 -74 190 -103 55
-30 127 -69 160 -87 114 -63 470 -240 550 -273 44 -18 91 -37 105 -43 14 -6
70 -37 125 -68 55 -32 123 -70 151 -86 205 -114 332 -188 330 -190 -1 -2 -77
28 -167 65 -402 168 -629 214 -969 198 -146 -8 -184 -13 -225 -34 -41 -20 -44
-28 -33 -75 43 -191 222 -432 453 -608 284 -217 757 -478 1240 -684 17 -7 50
-22 75 -33 25 -11 81 -34 125 -52 44 -17 100 -40 125 -50 81 -33 473 -182 555
-211 44 -15 105 -38 135 -49 30 -12 82 -30 115 -41 33 -12 74 -27 92 -35 17
-8 35 -14 41 -14 5 0 23 -7 38 -15 29 -15 73 -21 61 -8 -10 9 13 34 25 27 5
-3 16 0 24 8 19 15 202 115 290 157 34 16 65 34 68 40 4 6 13 11 20 11 7 0 53
23 102 51 l88 51 35 -22 c20 -12 44 -24 54 -27 9 -3 17 -9 17 -14 0 -5 4 -9 9
-9 5 0 38 -16 73 -36 34 -20 83 -48 108 -62 58 -33 90 -51 170 -97 80 -46 112
-64 170 -97 25 -14 74 -42 110 -63 96 -55 120 -69 175 -99 28 -16 55 -32 60
-36 6 -4 30 -19 55 -32 25 -14 74 -42 110 -63 79 -46 112 -64 170 -97 25 -14
74 -42 110 -63 86 -50 116 -67 170 -97 25 -14 61 -34 80 -45 19 -11 55 -31 80
-45 25 -14 63 -35 85 -48 22 -13 153 -80 290 -150 250 -126 359 -184 425 -224
19 -11 52 -30 72 -41 70 -37 235 -165 312 -241 117 -116 205 -252 251 -389 28
-84 41 -233 28 -333 -17 -136 -46 -211 -129 -337 -62 -94 -130 -167 -234 -251
-75 -61 -333 -238 -400 -275 -19 -11 -48 -28 -65 -39 -16 -11 -36 -23 -44 -26
-7 -4 -50 -28 -95 -54 -84 -48 -416 -215 -521 -262 -33 -15 -86 -38 -117 -52
-32 -14 -83 -37 -113 -51 -31 -14 -58 -25 -60 -25 -2 0 -28 -11 -57 -24 -29
-13 -129 -54 -223 -90 -93 -37 -179 -71 -190 -76 -32 -13 -278 -104 -289 -107
-6 -1 -129 -43 -274 -92 -144 -49 -266 -89 -270 -90 -4 -1 -50 -14 -102 -30
-52 -16 -126 -38 -165 -49 -38 -11 -117 -34 -175 -51 -58 -16 -125 -36 -150
-42 -25 -7 -49 -14 -55 -15 -5 -2 -53 -15 -105 -29 -52 -14 -102 -28 -110 -30
-65 -21 -835 -211 -1170 -289 -228 -54 -423 -99 -432 -102 -20 -5 -50 -11 -93
-20 -16 -3 -165 -37 -330 -74 -165 -38 -320 -71 -345 -75 -24 -4 -47 -8 -51
-10 -3 -2 -21 -7 -40 -10 -19 -3 -126 -25 -239 -50 -113 -24 -225 -47 -250
-50 -25 -4 -74 -13 -110 -20 -36 -7 -85 -16 -110 -20 -25 -3 -63 -10 -85 -15
-22 -5 -60 -11 -85 -15 -25 -3 -56 -8 -70 -10 -14 -3 -41 -7 -60 -10 -19 -3
-57 -9 -85 -14 -27 -5 -86 -15 -130 -21 -44 -6 -102 -16 -130 -20 -27 -5 -75
-12 -105 -16 -30 -3 -62 -8 -70 -9 -18 -3 -121 -18 -135 -20 -5 0 -32 -4 -60
-8 -27 -4 -70 -9 -95 -12 -53 -6 -194 -24 -230 -30 -14 -2 -52 -7 -85 -10 -33
-3 -71 -8 -85 -10 -23 -4 -49 -7 -185 -21 -27 -3 -61 -7 -75 -9 -14 -2 -54 -6
-90 -10 -36 -3 -81 -8 -100 -10 -19 -2 -66 -7 -105 -10 -38 -4 -86 -8 -105
-10 -19 -2 -69 -6 -110 -10 -41 -3 -95 -8 -120 -10 -98 -9 -168 -15 -245 -20
-44 -3 -102 -7 -130 -9 -294 -22 -594 -38 -560 -30 316 78 524 130 606 153
466 132 492 139 614 176 371 111 437 133 409 136 -21 2 -150 7 -329 13 -207 7
-286 11 -535 26 -299 19 -454 30 -560 40 -58 6 -129 12 -159 15 -197 19 -273
28 -406 45 -948 126 -1814 380 -2370 695 -277 157 -518 357 -657 545 -335 453
-365 975 -81 1393 189 279 469 506 878 712 306 154 460 212 955 356 244 71
773 173 1160 223 152 20 162 21 400 45 164 17 481 40 640 46 80 4 163 8 185
10 120 12 752 16 871 6 72 -6 159 -14 195 -17 139 -11 162 -14 168 -20 3 -3
-9 -4 -28 -2 l-35 3 3 -50 c5 -88 7 -96 22 -106 12 -7 12 -9 -1 -10 -8 -1 -19
0 -25 1 -32 7 -582 6 -695 -1 -960 -59 -1684 -335 -2204 -839 -203 -197 -350
-420 -412 -625 -25 -82 -27 -105 -28 -250 0 -177 13 -246 74 -385 125 -285
392 -560 820 -845 489 -325 1085 -585 1990 -870 280 -87 319 -98 345 -97 78 5
991 339 1222 448 40 19 75 34 77 34 3 0 67 26 143 59 645 274 1130 535 1453
781 44 33 82 60 86 60 10 0 82 59 184 149 486 431 660 789 604 1245 -3 27 -9
56 -14 65 -5 9 -18 52 -30 96 -26 96 -110 275 -176 377 -181 280 -504 597
-934 918 -542 404 -1179 738 -2010 1054 -19 8 -53 21 -75 29 -22 9 -80 30
-130 47 -49 18 -106 38 -125 45 -19 8 -66 24 -105 36 -38 12 -83 27 -100 34
-16 7 -46 16 -65 20 -31 6 -33 5 -18 -7 13 -10 19 -34 23 -98 3 -47 7 -110 10
-140 2 -30 7 -84 9 -120 3 -36 8 -94 11 -130 5 -61 9 -113 20 -270 3 -36 7
-90 10 -120 3 -30 7 -84 10 -120 19 -274 17 -264 47 -254 12 3 18 2 15 -3 -6
-10 -391 -8 -457 1 -62 10 -835 237 -1200 353 -625 200 -1013 462 -1046 706
-20 145 137 337 373 456 217 109 588 168 796 127 40 -8 126 -24 192 -36 66
-12 152 -28 190 -36 39 -8 115 -21 170 -30 141 -22 623 -119 1160 -233 124
-26 586 -132 900 -206 184 -43 1047 -262 1260 -319 277 -74 482 -131 600 -165
149 -42 318 -90 426 -120 100 -28 109 -28 151 12 10 9 26 17 36 18 21 1 -41
25 -128 50 -36 10 -110 32 -165 50 -55 17 -136 41 -180 54 -44 13 -152 44
-240 70 -88 26 -207 60 -265 76 -58 15 -204 56 -325 89 -475 130 -1508 382
-1965 480 -74 16 -232 49 -350 75 -492 104 -1081 219 -1385 269 -147 25 -511
85 -635 106 -63 11 -146 24 -185 30 -38 6 -97 15 -130 20 -33 5 -103 16 -155
24 -400 62 -856 136 -1050 172 -74 14 -169 32 -210 40 -243 45 -698 140 -830
174 -990 252 -1454 571 -1401 963 18 129 109 298 238 438 142 155 410 316 678
409 105 36 273 83 345 97 13 2 53 10 90 18 90 19 241 42 325 50 39 4 81 9 95
11 14 2 93 7 175 10 83 4 151 8 153 9 7 6 420 -5 552 -15z m-7999 -340 c72
-14 167 -60 217 -104 22 -20 55 -67 73 -104 30 -59 34 -76 34 -147 -1 -85 -25
-158 -55 -162 -19 -2 -128 -24 -305 -63 -77 -17 -149 -33 -160 -35 -11 -2 -34
-6 -51 -10 -27 -5 -36 0 -73 40 -192 208 -88 539 184 586 60 10 78 10 136 -1z
m13746 -50 c61 -26 127 -93 141 -142 17 -62 -6 -140 -43 -146 -44 -8 -274
-106 -269 -114 11 -17 -40 16 -80 52 -51 47 -86 121 -86 186 0 40 6 60 30 96
17 25 37 51 45 58 53 44 172 49 262 10z m3443 -102 c187 -349 498 -755 1106
-1443 87 -99 147 -171 133 -160 -417 320 -551 406 -759 488 -167 66 -353 87
-463 52 -122 -38 -209 -141 -242 -285 -16 -71 -17 -94 -8 -169 6 -49 24 -122
41 -164 16 -42 25 -74 20 -71 -5 3 -111 74 -236 158 -321 215 -787 512 -1029
656 -109 65 -109 67 -60 180 48 109 116 209 208 305 155 161 306 268 534 380
217 106 376 156 575 180 58 7 107 13 110 14 3 0 34 -54 70 -121z m-13434 15
c68 -23 123 -64 164 -124 33 -49 35 -57 35 -133 0 -61 -4 -87 -17 -106 -10
-13 -18 -19 -18 -13 0 9 -89 -22 -205 -72 -11 -4 -22 -9 -25 -10 -3 -1 -16 -6
-30 -12 -46 -19 -121 -43 -135 -43 -46 0 -118 71 -148 146 -61 156 19 328 174
373 54 15 151 12 205 -6z m14287 -173 c3 -11 1 -18 -4 -14 -5 3 -9 12 -9 20 0
20 7 17 13 -6z m-274 -234 c-3 -3 -11 5 -18 17 -13 21 -12 21 5 5 10 -10 16
-20 13 -22z m-13179 -700 c653 -58 1128 -162 1590 -346 449 -180 922 -293
1710 -411 41 -6 125 -18 185 -27 l110 -17 3 -32 c4 -45 -21 -49 -138 -23 -194
43 -750 155 -965 195 -114 20 -190 33 -450 76 -134 22 -482 58 -660 70 -449
28 -1003 -14 -1295 -98 -277 -79 -521 -218 -670 -380 -87 -94 -129 -167 -157
-272 -40 -151 -25 -270 56 -436 182 -372 599 -670 1197 -853 71 -22 147 -44
167 -47 108 -21 31 -22 -718 -14 -527 5 -1131 37 -1149 61 -17 23 -41 27 -87
16 -24 -6 -73 -10 -109 -9 -64 1 -340 32 -455 50 -33 6 -105 18 -160 27 -141
23 -489 107 -620 150 -101 33 -213 76 -290 109 -16 7 -56 25 -87 38 -145 64
-330 194 -411 289 -124 147 -178 285 -178 453 1 366 286 785 701 1032 405 241
967 377 1690 409 80 4 147 8 149 11 13 10 882 -7 1041 -21z m20667 -192 c2 -7
-21 -26 -52 -43 -69 -39 -188 -155 -241 -236 -22 -33 -52 -91 -68 -130 -72
-181 -120 -246 -163 -219 -25 16 -29 105 -7 164 26 71 122 209 199 285 73 73
161 134 249 172 54 23 77 25 83 7z m-5618 -304 c0 -9 -4 -8 -9 5 -5 11 -9 27
-9 35 0 9 4 8 9 -5 5 -11 9 -27 9 -35z m59 -190 c0 -8 -8 8 -18 35 -10 28 -18
57 -18 65 0 8 8 -7 18 -35 10 -27 18 -57 18 -65z m21 -70 c0 -9 -4 -8 -9 5 -5
11 -9 27 -9 35 0 9 4 8 9 -5 5 -11 9 -27 9 -35z m129 -425 c107 -360 164 -553
242 -820 127 -435 134 -458 216 -735 45 -155 48 -166 42 -160 -7 6 -163 478
-212 640 -34 113 -155 537 -214 755 -57 206 -114 410 -153 544 -36 125 -45
160 -35 150 2 -2 53 -170 114 -374z m4822 73 c24 -40 25 -61 5 -78 -23 -19
-70 3 -60 28 5 9 9 28 10 42 3 37 4 40 15 40 6 0 19 -15 30 -32z m-8255 -598
c3 -6 -1 -7 -9 -4 -18 7 -21 14 -7 14 6 0 13 -4 16 -10z m120 -70 c3 -6 -1 -7
-9 -4 -18 7 -21 14 -7 14 6 0 13 -4 16 -10z m40 -28 c-3 -3 -11 0 -18 7 -9 10
-8 11 6 5 10 -3 15 -9 12 -12z m-16855 -62 c146 -20 311 -93 399 -174 41 -38
146 -178 172 -228 26 -51 49 -152 49 -218 0 -68 -18 -182 -31 -195 -5 -5 -9
-18 -9 -30 0 -16 -2 -17 -9 -6 -8 12 -13 12 -35 -3 -14 -9 -26 -14 -26 -11 0
3 -10 0 -22 -7 -13 -7 -25 -13 -28 -14 -9 -2 -45 -16 -79 -31 -18 -8 -39 -16
-45 -17 -6 -1 -28 -10 -50 -19 -21 -9 -44 -17 -50 -17 -7 0 -17 -5 -24 -12 -6
-6 -17 -13 -24 -14 -7 -1 -26 -8 -43 -15 -16 -7 -32 -13 -35 -14 -3 -1 -18 -7
-35 -14 -16 -7 -59 -24 -95 -37 -36 -14 -81 -32 -100 -41 -19 -9 -39 -16 -44
-14 -5 1 -16 -5 -25 -13 -9 -8 -19 -15 -23 -16 -10 -1 -32 -8 -55 -17 -10 -3
-20 -7 -23 -8 -70 -24 -100 -41 -95 -53 13 -33 -126 59 -200 133 -130 129
-184 256 -192 445 -6 131 8 202 59 309 121 249 416 394 718 351z m3735 -804
c99 -8 252 -18 340 -22 88 -3 176 -8 195 -11 36 -4 1100 -10 3590 -18 789 -2
1453 -6 1475 -9 22 -2 146 -7 275 -10 248 -6 502 -17 498 -21 -2 -2 -66 -8
-143 -14 -77 -7 -165 -14 -195 -17 -79 -8 -560 -64 -590 -68 -121 -20 -181
-25 -261 -21 -163 9 -754 11 -1014 4 -210 -7 -589 -30 -700 -44 -16 -2 -57 -6
-90 -10 -179 -18 -624 -83 -825 -121 -766 -144 -1272 -354 -1790 -742 -135
-102 -368 -326 -444 -426 -226 -301 -138 -496 270 -596 122 -30 154 -49 154
-91 0 -11 -7 -20 -17 -20 -10 -1 -29 -3 -43 -4 -230 -26 -1398 -25 -1745 1
-247 18 -530 49 -760 84 -117 17 -361 69 -524 111 -112 29 -162 47 -184 65
-23 19 -39 25 -61 21 -21 -3 -63 9 -133 39 -285 119 -483 269 -636 481 -45 61
-110 199 -126 265 -24 101 -8 209 45 309 35 65 147 180 230 237 119 80 316
170 519 237 184 61 530 149 670 171 22 3 69 12 105 19 136 28 500 85 745 116
88 11 171 22 185 24 14 2 158 20 320 39 344 42 384 47 389 52 8 7 96 4 276
-10z m8022 -52 c-3 -3 -12 -4 -19 -1 -8 3 -5 6 6 6 11 1 17 -2 13 -5z m-10
-150 c-3 -3 -12 -4 -19 -1 -8 3 -5 6 6 6 11 1 17 -2 13 -5z m-30 -170 c-3 -3
-12 -4 -19 -1 -8 3 -5 6 6 6 11 1 17 -2 13 -5z m10260 -445 c77 -102 180 -247
231 -321 l91 -135 -42 -39 c-77 -72 -221 -200 -277 -245 -30 -24 -62 -51 -71
-59 -8 -8 -51 -49 -95 -90 -176 -167 -474 -430 -485 -430 -5 0 -9 4 -9 8 0 31
-340 566 -488 767 -28 38 -50 70 -49 72 2 1 25 5 52 8 108 14 187 34 281 74
86 36 103 45 189 103 161 108 299 278 409 500 l38 78 42 -53 c24 -28 106 -136
183 -238z m-10269 24 c-11 -12 -15 -32 -12 -58 8 -93 15 -174 19 -230 5 -71
14 -184 21 -269 2 -34 7 -88 9 -121 2 -33 7 -89 10 -125 3 -36 7 -96 10 -135
6 -82 12 -155 20 -245 3 -36 8 -99 10 -140 3 -41 7 -100 10 -130 5 -57 12
-150 20 -255 2 -33 7 -94 10 -135 3 -41 8 -97 10 -125 2 -27 7 -79 10 -115 3
-36 8 -96 10 -135 5 -82 14 -187 21 -265 3 -30 7 -82 9 -115 9 -152 17 -230
26 -247 13 -24 7 -24 -126 11 -227 59 -527 153 -717 227 -21 8 -55 20 -75 28
-370 140 -690 322 -880 500 -492 462 -463 1077 71 1510 217 176 545 342 866
436 58 17 125 38 150 45 53 16 214 53 268 61 20 3 55 9 77 14 22 5 63 12 90
15 28 4 52 9 54 11 14 13 21 1 9 -13z m-12036 -939 c114 -43 205 -144 229
-254 10 -47 9 -66 -6 -128 -10 -40 -21 -68 -25 -62 -4 7 -22 4 -53 -9 -26 -11
-51 -21 -55 -22 -8 -2 -13 -4 -137 -54 -49 -21 -104 -43 -122 -51 -17 -8 -35
-14 -40 -14 -19 0 -83 -36 -77 -43 12 -12 -12 -8 -42 8 -161 80 -234 309 -150
473 49 96 155 167 269 181 84 10 130 4 209 -25z m1713 -455 c275 -72 664 -130
1025 -153 47 -3 155 -10 240 -16 302 -20 511 -25 993 -25 268 0 487 -1 487 -1
0 -1 -28 -17 -62 -34 -260 -135 -447 -354 -489 -574 -43 -227 61 -479 289
-698 83 -81 88 -79 -125 -43 -344 57 -536 103 -853 206 -800 260 -1489 596
-1746 853 -97 97 -154 207 -154 296 0 65 28 125 91 194 l60 65 47 -16 c26 -8
115 -33 197 -54z m18703 -904 l53 -119 -39 -36 c-108 -99 -490 -433 -896 -785
-124 -107 -301 -255 -306 -255 -3 0 -27 42 -55 93 -84 155 -258 438 -380 618
-63 95 -114 172 -113 173 23 12 68 31 133 57 44 17 98 39 120 49 22 10 76 33
120 53 326 142 727 347 1030 526 l120 71 80 -163 c44 -89 104 -216 133 -282z
m-8121 -571 c-3 -3 -12 -4 -19 -1 -8 3 -5 6 6 6 11 1 17 -2 13 -5z m5124
-1121 c83 -139 252 -470 304 -596 17 -39 24 -71 19 -76 -55 -47 -444 -293
-669 -421 -342 -197 -449 -232 -585 -197 -56 15 -90 61 -90 121 1 102 63 257
163 406 78 117 270 367 342 446 5 6 39 44 75 85 59 68 116 129 284 307 33 34
63 62 67 62 5 0 45 -62 90 -137z"/>
<path d="M21586 27823 c-6 -14 -5 -15 5 -6 7 7 10 15 7 18 -3 3 -9 -2 -12 -12z"/>
<path d="M23542 22949 c-30 -6 -106 -52 -118 -71 -10 -15 7 -8 29 13 33 30 82
51 122 51 19 0 35 1 35 3 0 8 -39 10 -68 4z"/>
<path d="M23640 22940 c34 -11 60 -11 35 0 -11 5 -29 8 -40 8 -16 0 -15 -2 5
-8z"/>
<path d="M23718 22913 c7 -3 16 -2 19 1 4 3 -2 6 -13 5 -11 0 -14 -3 -6 -6z"/>
<path d="M23797 22869 c7 -7 15 -10 18 -7 3 3 -2 9 -12 12 -14 6 -15 5 -6 -5z"/>
<path d="M23845 22832 c11 -13 29 -28 40 -34 21 -11 18 -8 -30 32 -29 24 -29
24 -10 2z"/>
<path d="M23381 22804 c0 -11 3 -14 6 -6 3 7 2 16 -1 19 -3 4 -6 -2 -5 -13z"/>
<path d="M23361 22764 c0 -11 3 -14 6 -6 3 7 2 16 -1 19 -3 4 -6 -2 -5 -13z"/>
<path d="M23905 22770 c3 -5 11 -10 16 -10 6 0 7 5 4 10 -3 6 -11 10 -16 10
-6 0 -7 -4 -4 -10z"/>
<path d="M23351 22724 c0 -11 3 -14 6 -6 3 7 2 16 -1 19 -3 4 -6 -2 -5 -13z"/>
<path d="M23341 22684 c0 -11 3 -14 6 -6 3 7 2 16 -1 19 -3 4 -6 -2 -5 -13z"/>
<path d="M24020 22642 c0 -12 19 -26 26 -19 2 2 -2 10 -11 17 -9 8 -15 8 -15
2z"/>
<path d="M24060 22590 c6 -11 13 -20 16 -20 2 0 0 9 -6 20 -6 11 -13 20 -16
20 -2 0 0 -9 6 -20z"/>
<path d="M17841 25294 c0 -11 3 -14 6 -6 3 7 2 16 -1 19 -3 4 -6 -2 -5 -13z"/>
<path d="M17786 25173 c-6 -14 -5 -15 5 -6 7 7 10 15 7 18 -3 3 -9 -2 -12 -12z"/>
<path d="M17679 25053 c-13 -16 -12 -17 4 -4 16 13 21 21 13 21 -2 0 -10 -8
-17 -17z"/>
<path d="M17579 24983 c-13 -16 -12 -17 4 -4 9 7 17 15 17 17 0 8 -8 3 -21
-13z"/>
<path d="M23738 18327 c-16 -6 -28 -15 -28 -19 0 -5 13 -2 29 6 16 9 31 12 35
9 3 -4 6 -1 6 5 0 14 -5 14 -42 -1z"/>
<path d="M23306 18177 c3 -10 9 -15 12 -12 3 3 0 11 -7 18 -10 9 -11 8 -5 -6z"/>
<path d="M23330 18091 c0 -5 5 -13 10 -16 6 -3 10 -2 10 4 0 5 -4 13 -10 16
-5 3 -10 2 -10 -4z"/>
<path d="M23346 18047 c3 -10 9 -15 12 -12 3 3 0 11 -7 18 -10 9 -11 8 -5 -6z"/>
<path d="M23360 18001 c0 -6 4 -13 10 -16 6 -3 7 1 4 9 -7 18 -14 21 -14 7z"/>
<path d="M23370 17961 c0 -6 4 -13 10 -16 6 -3 7 1 4 9 -7 18 -14 21 -14 7z"/>
<path d="M20560 20690 c-9 -6 -10 -10 -3 -10 6 0 15 5 18 10 8 12 4 12 -15 0z"/>
<path d="M20598 20693 c7 -3 16 -2 19 1 4 3 -2 6 -13 5 -11 0 -14 -3 -6 -6z"/>
<path d="M20655 20690 c11 -5 29 -8 40 -8 16 0 15 2 -5 8 -34 11 -60 11 -35 0z"/>
<path d="M20498 20668 c-20 -12 -40 -28 -43 -36 -3 -8 8 -4 24 10 15 12 37 28
47 35 33 20 11 14 -28 -9z"/>
<path d="M20728 20673 c7 -3 16 -2 19 1 4 3 -2 6 -13 5 -11 0 -14 -3 -6 -6z"/>
<path d="M20423 20593 c-18 -38 -16 -54 2 -19 9 16 14 33 13 37 -2 5 -9 -4
-15 -18z"/>
<path d="M20924 20564 c26 -20 49 -34 52 -32 4 5 -82 68 -93 68 -3 0 15 -16
41 -36z"/>
<path d="M20386 20504 c-4 -20 -5 -38 -3 -40 3 -3 8 11 11 32 4 20 5 38 3 40
-3 3 -8 -11 -11 -32z"/>
<path d="M21070 20446 c0 -2 8 -10 18 -17 15 -13 16 -12 3 4 -13 16 -21 21
-21 13z"/>
<path d="M21110 20406 c0 -2 8 -10 18 -17 15 -13 16 -12 3 4 -13 16 -21 21
-21 13z"/>
<path d="M21531 16179 c-42 -22 -66 -44 -36 -33 11 4 25 11 31 15 6 5 13 7 16
4 3 -3 11 1 18 10 19 22 10 23 -29 4z"/>
<path d="M21150 15841 c0 -6 4 -13 10 -16 6 -3 7 1 4 9 -7 18 -14 21 -14 7z"/>
<path d="M21201 15743 c7 -12 15 -20 18 -17 3 2 -3 12 -13 22 -17 16 -18 16
-5 -5z"/>
<path d="M16810 19282 c6 -13 14 -21 18 -18 3 4 -2 14 -12 24 -18 16 -18 16
-6 -6z"/>
<path d="M16840 19243 c0 -6 8 -17 18 -24 16 -13 16 -13 2 6 -8 11 -16 22 -17
24 -2 2 -3 0 -3 -6z"/>
<path d="M16922 19083 c-92 -236 -15 -564 212 -902 129 -192 243 -319 676
-756 410 -413 475 -480 624 -645 32 -36 55 -58 50 -50 -73 135 -719 1145
-1162 1815 -124 187 -258 391 -299 453 -41 61 -78 112 -82 112 -5 0 -13 -12
-19 -27z"/>
<path d="M20810 15696 c0 -2 8 -10 18 -17 15 -13 16 -12 3 4 -13 16 -21 21
-21 13z"/>
<path d="M20665 15301 c-6 -11 9 -23 19 -14 9 9 7 23 -3 23 -6 0 -12 -4 -16
-9z"/>
<path d="M20622 15278 c-7 -7 -12 -9 -12 -5 0 4 -10 2 -22 -5 -13 -7 -25 -13
-28 -13 -3 -1 -16 -6 -30 -12 -14 -6 -59 -25 -100 -41 -41 -17 -88 -36 -105
-43 -16 -7 -32 -13 -35 -14 -12 -2 -56 -29 -67 -41 -7 -7 -18 -14 -25 -17 -7
-2 -11 -7 -8 -10 3 -3 19 0 35 7 17 7 33 13 38 14 4 1 29 12 55 26 54 28 165
80 172 81 3 0 30 12 60 26 30 14 66 30 79 36 14 5 20 12 14 16 -5 3 -15 1 -21
-5z"/>
<path d="M20620 15120 c-8 -5 -12 -12 -9 -15 4 -3 12 1 19 10 14 17 11 19 -10
5z"/>
<path d="M19799 14945 c5 -11 17 -29 26 -40 l16 -20 -10 20 c-5 11 -17 29 -26
40 l-16 20 10 -20z"/>
<path d="M19890 14780 c6 -11 13 -20 16 -20 2 0 0 9 -6 20 -6 11 -13 20 -16
20 -2 0 0 -9 6 -20z"/>
<path d="M19931 14703 c7 -12 15 -20 18 -17 3 2 -3 12 -13 22 -17 16 -18 16
-5 -5z"/>
<path d="M17678 7943 c7 -3 16 -2 19 1 4 3 -2 6 -13 5 -11 0 -14 -3 -6 -6z"/>
<path d="M17718 7933 c7 -3 16 -2 19 1 4 3 -2 6 -13 5 -11 0 -14 -3 -6 -6z"/>
<path d="M18785 7910 c11 -5 29 -8 40 -8 16 0 15 2 -5 8 -34 11 -60 11 -35 0z"/>
<path d="M17838 7893 c7 -3 16 -2 19 1 4 3 -2 6 -13 5 -11 0 -14 -3 -6 -6z"/>
<path d="M17578 7883 c7 -3 16 -2 19 1 4 3 -2 6 -13 5 -11 0 -14 -3 -6 -6z"/>
<path d="M18858 7883 c7 -3 16 -2 19 1 4 3 -2 6 -13 5 -11 0 -14 -3 -6 -6z"/>
<path d="M17618 7873 c7 -3 16 -2 19 1 4 3 -2 6 -13 5 -11 0 -14 -3 -6 -6z"/>
<path d="M17658 7863 c7 -3 16 -2 19 1 4 3 -2 6 -13 5 -11 0 -14 -3 -6 -6z"/>
<path d="M18938 7853 c7 -3 16 -2 19 1 4 3 -2 6 -13 5 -11 0 -14 -3 -6 -6z"/>
<path d="M18970 7846 c0 -2 7 -7 16 -10 8 -3 12 -2 9 4 -6 10 -25 14 -25 6z"/>
<path d="M17738 7833 c7 -3 16 -2 19 1 4 3 -2 6 -13 5 -11 0 -14 -3 -6 -6z"/>
</g>
</svg>
